<svg width="48" height="35" viewBox="0 0 48 35" fill="none" xmlns="http://www.w3.org/2000/svg">
<path d="M30.8213 25.9561C32.2054 24.6008 33.1544 22.864 33.5474 20.9671C33.9403 19.0703 33.7593 17.0994 33.0274 15.3058C32.2955 13.5123 31.046 11.9774 29.4382 10.897C27.8304 9.81652 25.9372 9.23949 24 9.23949C22.0629 9.23949 20.1697 9.81652 18.5619 10.897C16.9541 11.9774 15.7045 13.5123 14.9727 15.3058C14.2408 17.0994 14.0598 19.0703 14.4527 20.9671C14.8456 22.864 15.7947 24.6008 17.1788 25.9561C14.8353 27.2018 12.8869 29.0781 11.5538 31.3729C11.2683 31.8888 11.1967 32.4962 11.3544 33.0643C11.5122 33.6325 11.8866 34.116 12.3972 34.4108C12.9079 34.7057 13.5138 34.7884 14.0847 34.641C14.6556 34.4937 15.1459 34.1281 15.45 33.6229C16.3292 32.1374 17.5802 30.9066 19.0798 30.0516C20.5793 29.1966 22.2757 28.747 24.0019 28.747C25.7281 28.747 27.4245 29.1966 28.924 30.0516C30.4236 30.9066 31.6746 32.1374 32.5538 33.6229C32.6985 33.8845 32.8939 34.1146 33.1286 34.2997C33.3633 34.4849 33.6325 34.6215 33.9205 34.7015C34.2085 34.7814 34.5096 34.8032 34.8062 34.7655C35.1027 34.7278 35.3888 34.6314 35.6476 34.4819C35.9065 34.3324 36.133 34.1329 36.3138 33.8949C36.4947 33.6569 36.6263 33.3852 36.701 33.0958C36.7757 32.8063 36.792 32.5049 36.7489 32.2091C36.7058 31.9133 36.6042 31.629 36.45 31.3729C35.1159 29.0776 33.1661 27.2012 30.8213 25.9561ZM18.75 18.9998C18.75 17.9615 19.0579 16.9464 19.6348 16.0831C20.2117 15.2197 21.0316 14.5468 21.991 14.1494C22.9503 13.7521 24.0059 13.6481 25.0243 13.8507C26.0427 14.0533 26.9781 14.5533 27.7123 15.2875C28.4466 16.0217 28.9466 16.9572 29.1492 17.9756C29.3517 18.994 29.2478 20.0496 28.8504 21.0089C28.453 21.9682 27.7801 22.7881 26.9168 23.365C26.0534 23.9419 25.0384 24.2498 24 24.2498C22.6077 24.2498 21.2723 23.6967 20.2877 22.7121C19.3032 21.7276 18.75 20.3922 18.75 18.9998ZM46.3519 20.7979C46.1156 20.9756 45.8466 21.105 45.5602 21.1786C45.2739 21.2522 44.9758 21.2687 44.6831 21.2271C44.3904 21.1855 44.1087 21.0866 43.8543 20.9361C43.5998 20.7855 43.3775 20.5863 43.2 20.3498C41.6382 18.2704 39.4782 16.6767 37.7007 16.2923C37.228 16.1901 36.8009 15.9383 36.4826 15.5743C36.1642 15.2103 35.9717 14.7534 35.9334 14.2713C35.8951 13.7893 36.0131 13.3077 36.27 12.898C36.5268 12.4883 36.9088 12.1722 37.3594 11.9967C37.9204 11.7777 38.4204 11.4268 38.8171 10.9738C39.2138 10.5207 39.4956 9.97877 39.6386 9.39379C39.7815 8.8088 39.7815 8.19799 39.6385 7.61301C39.4956 7.02803 39.2138 6.48609 38.8171 6.03302C38.4204 5.57996 37.9204 5.22909 37.3594 5.01011C36.7984 4.79113 36.193 4.71048 35.5942 4.77496C34.9955 4.83945 34.4211 5.04718 33.9196 5.38059C33.4181 5.714 33.0043 6.16329 32.7132 6.69043C32.5751 6.95757 32.3849 7.19433 32.1538 7.3867C31.9226 7.57908 31.6553 7.72317 31.3675 7.81047C31.0798 7.89777 30.7774 7.9265 30.4784 7.89496C30.1793 7.86343 29.8896 7.77227 29.6264 7.62687C29.3632 7.48147 29.1318 7.28479 28.9459 7.04844C28.76 6.81209 28.6233 6.54087 28.544 6.25081C28.4647 5.96075 28.4443 5.65773 28.4841 5.35967C28.5239 5.0616 28.623 4.77454 28.7757 4.51544C29.3324 3.53096 30.0857 2.67148 30.9886 1.99038C31.8915 1.30928 32.9248 0.821104 34.0244 0.556181C35.1239 0.291257 36.2662 0.255244 37.3802 0.450377C38.4942 0.64551 39.5563 1.06762 40.5003 1.69049C41.4443 2.31336 42.2502 3.12369 42.8679 4.07113C43.4855 5.01858 43.9018 6.08291 44.0908 7.19801C44.2798 8.3131 44.2375 9.45515 43.9665 10.5532C43.6956 11.6513 43.2017 12.6819 42.5157 13.5811C44.1666 14.6808 45.6159 16.0565 46.8 17.6479C47.1583 18.1251 47.3123 18.725 47.2283 19.3157C47.1442 19.9065 46.829 20.4396 46.3519 20.7979ZM10.2994 16.2979C8.52191 16.6823 6.36191 18.2761 4.80004 20.3573C4.44075 20.8344 3.90664 21.1493 3.3152 21.2327C2.72375 21.316 2.12343 21.161 1.64629 20.8017C1.16915 20.4424 0.854276 19.9083 0.770939 19.3168C0.687603 18.7254 0.842629 18.1251 1.20191 17.6479C2.38661 16.057 3.83581 14.6813 5.48629 13.5811C4.80023 12.6819 4.30638 11.6513 4.03541 10.5532C3.76444 9.45515 3.72214 8.3131 3.91115 7.19801C4.10015 6.08291 4.51641 5.01858 5.13408 4.07113C5.75175 3.12369 6.55762 2.31336 7.50166 1.69049C8.44569 1.06762 9.50771 0.64551 10.6218 0.450377C11.7358 0.255244 12.8781 0.291257 13.9776 0.556181C15.0771 0.821104 16.1105 1.30928 17.0134 1.99038C17.9163 2.67148 18.6695 3.53096 19.2263 4.51544C19.3789 4.77454 19.478 5.0616 19.5178 5.35967C19.5576 5.65773 19.5372 5.96075 19.4579 6.25081C19.3786 6.54087 19.242 6.81209 19.0561 7.04844C18.8701 7.28479 18.6387 7.48147 18.3755 7.62687C18.1123 7.77227 17.8226 7.86343 17.5236 7.89496C17.2245 7.9265 16.9222 7.89777 16.6344 7.81047C16.3467 7.72317 16.0793 7.57908 15.8482 7.3867C15.6171 7.19433 15.4269 6.95757 15.2888 6.69043C14.9976 6.16329 14.5838 5.714 14.0824 5.38059C13.5809 5.04718 13.0065 4.83945 12.4077 4.77496C11.809 4.71048 11.2035 4.79113 10.6425 5.01011C10.0816 5.22909 9.58157 5.57996 9.18486 6.03302C8.78815 6.48609 8.50638 7.02803 8.3634 7.61301C8.22041 8.19799 8.22041 8.8088 8.3634 9.39379C8.50638 9.97877 8.78815 10.5207 9.18486 10.9738C9.58157 11.4268 10.0816 11.7777 10.6425 11.9967C11.0931 12.1722 11.4751 12.4883 11.732 12.898C11.9889 13.3077 12.1069 13.7893 12.0686 14.2713C12.0303 14.7534 11.8377 15.2103 11.5194 15.5743C11.2011 15.9383 10.7739 16.1901 10.3013 16.2923L10.2994 16.2979Z" fill="url(#paint0_linear_459_3614)"/>
<defs>
<linearGradient id="paint0_linear_459_3614" x1="0.748901" y1="0.32666" x2="47.3453" y2="0.515336" gradientUnits="userSpaceOnUse">
<stop stop-color="#6CCAFF"/>
<stop offset="0.5" stop-color="#6D85FE"/>
<stop offset="1" stop-color="#9B49F0"/>
</linearGradient>
</defs>
</svg>
