<svg width="26" height="29" viewBox="0 0 26 29" fill="none" xmlns="http://www.w3.org/2000/svg">
<path d="M24 0.5H6C4.54182 0.501654 3.14383 1.08165 2.11274 2.11274C1.08165 3.14383 0.501654 4.54182 0.5 6V15C0.5 15.9283 0.868749 16.8185 1.52513 17.4749C2.1815 18.1313 3.07174 18.5 4 18.5H8.955L8.5 23.875C8.5 23.9163 8.5 23.9587 8.5 24C8.5 25.1935 8.97411 26.3381 9.81802 27.182C10.6619 28.0259 11.8065 28.5 13 28.5C14.1935 28.5 15.3381 28.0259 16.182 27.182C17.0259 26.3381 17.5 25.1935 17.5 24C17.5 23.9587 17.5 23.9163 17.5 23.875L17.05 18.5H22C22.9283 18.5 23.8185 18.1313 24.4749 17.4749C25.1313 16.8185 25.5 15.9283 25.5 15V2C25.5 1.60218 25.342 1.22064 25.0607 0.93934C24.7794 0.658035 24.3978 0.5 24 0.5ZM6 3.5H17V6.5C17 6.89782 17.158 7.27936 17.4393 7.56066C17.7206 7.84196 18.1022 8 18.5 8C18.8978 8 19.2794 7.84196 19.5607 7.56066C19.842 7.27936 20 6.89782 20 6.5V3.5H22.5V10H3.5V6C3.5 5.33696 3.76339 4.70107 4.23223 4.23223C4.70107 3.76339 5.33696 3.5 6 3.5ZM22 15.5H16.5C16.1464 15.5001 15.7969 15.5752 15.4745 15.7203C15.1521 15.8655 14.8641 16.0773 14.6296 16.3419C14.3951 16.6066 14.2194 16.9179 14.1141 17.2554C14.0088 17.593 13.9763 17.949 14.0187 18.3L14.4988 24.05C14.4988 24.4478 14.3407 24.8294 14.0594 25.1107C13.7781 25.392 13.3966 25.55 12.9987 25.55C12.6009 25.55 12.2194 25.392 11.9381 25.1107C11.6568 24.8294 11.4987 24.4478 11.4987 24.05L11.9788 18.3C12.0212 17.9492 11.9887 17.5934 11.8836 17.256C11.7784 16.9187 11.6029 16.6075 11.3687 16.3429C11.1345 16.0783 10.8468 15.8664 10.5247 15.7211C10.2026 15.5758 9.85336 15.5005 9.5 15.5H4C3.86739 15.5 3.74021 15.4473 3.64645 15.3536C3.55268 15.2598 3.5 15.1326 3.5 15V13H22.5V15C22.5 15.1326 22.4473 15.2598 22.3536 15.3536C22.2598 15.4473 22.1326 15.5 22 15.5Z" fill="url(#paint0_linear_459_4078)"/>
<defs>
<linearGradient id="paint0_linear_459_4078" x1="0.5" y1="0.5" x2="25.5511" y2="0.567108" gradientUnits="userSpaceOnUse">
<stop stop-color="#6CCAFF"/>
<stop offset="0.5" stop-color="#6D85FE"/>
<stop offset="1" stop-color="#9B49F0"/>
</linearGradient>
</defs>
</svg>
