<svg width="199" height="71" viewBox="0 0 199 71" fill="none" xmlns="http://www.w3.org/2000/svg">
<g clip-path="url(#clip0_262_5202)">
<mask id="mask0_262_5202" style="mask-type:luminance" maskUnits="userSpaceOnUse" x="0" y="0" width="199" height="71">
<path d="M198.8 0H0V71H198.8V0Z" fill="white"/>
</mask>
<g mask="url(#mask0_262_5202)">
<path d="M119.026 43.46H96.0303V49.5908H119.026V43.46Z" fill="white"/>
<path d="M119.026 15.1621H96.0303V21.293H119.026V15.1621Z" fill="white"/>
<path d="M119.026 29.311H96.0303V35.4419H119.026V29.311Z" fill="white"/>
<path d="M38.5047 62.9331C34.5293 64.2496 30.4823 64.9056 26.3637 64.9056C22.2452 64.9056 18.1982 64.2496 14.2226 62.9331C10.2471 61.6166 6.59313 59.7904 3.26082 57.4277L0 62.3835C3.76114 65.1007 7.87965 67.2151 12.3555 68.7265C16.8269 70.2337 21.4947 70.996 26.3593 71.0004C31.2237 71.0004 35.8916 70.2337 40.363 68.7265C44.8388 67.1973 48.9573 65.1007 52.7186 62.3835L49.4577 57.4277C46.1342 59.786 42.4804 61.6166 38.5047 62.9331Z" fill="white"/>
<path d="M51.3084 15.1621H45.1307V49.5906H51.3084V15.1621Z" fill="white"/>
<path d="M82.3946 32.3918C81.4076 31.647 80.3177 31.0575 79.116 30.5966C77.9144 30.1534 76.7709 29.7455 75.6587 29.3864C74.6714 29.1027 73.7602 28.8013 72.9561 28.5177C72.1522 28.2339 71.4507 27.8972 70.879 27.507C70.3072 27.1169 69.8605 26.6559 69.5344 26.1019C69.2128 25.5522 69.0521 24.8917 69.0521 24.1116C69.0521 23.2605 69.2486 22.547 69.6239 21.944C69.9991 21.3412 70.4815 20.8625 71.0756 20.4856C71.6474 20.1133 72.313 19.8296 73.0276 19.6523C73.7424 19.475 74.4615 19.3864 75.1762 19.3864C76.3777 19.3864 77.575 19.67 78.7765 20.2375C79.9782 20.8048 80.8894 21.5185 81.5504 22.3519L81.5684 22.2631L85.5797 17.8926C84.2351 16.6647 82.6582 15.7428 80.8536 15.1222C79.0268 14.5016 77.2533 14.2002 75.4799 14.2002C73.9032 14.2002 72.362 14.3952 70.8433 14.803C69.3202 15.2108 67.98 15.8137 66.7784 16.6515C65.5946 17.4848 64.6297 18.5353 63.8972 19.7941C63.1646 21.0753 62.785 22.5645 62.785 24.3244C62.785 25.9601 63.053 27.3075 63.5711 28.3935C64.1072 29.4751 64.7728 30.4015 65.6125 31.1461C66.4346 31.8909 67.3859 32.4981 68.4222 32.9414C69.4586 33.4025 70.5172 33.7925 71.5579 34.1161C72.6344 34.4707 73.6529 34.8076 74.6402 35.1267C75.6051 35.4459 76.467 35.8183 77.1818 36.2615C77.8966 36.7047 78.4728 37.2189 78.9016 37.8262C79.3305 38.4289 79.5449 39.1427 79.5449 40.0824C79.5449 41.0222 79.3482 41.8068 78.973 42.4451C78.5979 43.0834 78.1155 43.602 77.5034 44.0275C76.896 44.4529 76.2125 44.7545 75.462 44.9317C74.7116 45.109 73.9746 45.1977 73.26 45.1977C71.8797 45.1977 70.486 44.8608 69.0699 44.187C67.654 43.5133 66.5103 42.5869 65.6661 41.4166L61.2618 45.5036C62.6421 47.1392 64.4155 48.3448 66.5639 49.1826C68.7126 50.016 70.9148 50.4281 73.1705 50.4281C74.8724 50.4281 76.485 50.1977 78.0216 49.7545C79.5449 49.2935 80.885 48.6153 82.0329 47.711C83.1765 46.8068 84.0922 45.6676 84.7712 44.2801C85.4501 42.9105 85.7941 41.297 85.7941 39.4485C85.7941 37.7598 85.4902 36.3589 84.847 35.2197C84.2039 34.0805 83.3998 33.1364 82.3946 32.3918Z" fill="white"/>
<path d="M19.0006 22.4627L29.6901 49.5906H36.587L21.4888 15.1621H19.0006H16.5081L1.41443 49.5906H8.3069L19.0006 22.4627Z" fill="white"/>
<path d="M181.215 22.4627L191.904 49.5906H198.802L183.704 15.1621H181.215H178.728L163.629 49.5906H170.526L181.215 22.4627Z" fill="white"/>
<path d="M143.535 15.1621H137.004H130.827V49.5906H137.004V38.1764H143.388L144.835 41.7181L148.078 49.5861H155.135L149.476 36.5496C152.866 34.5416 155.135 30.867 155.135 26.6648C155.131 20.3128 149.94 15.1621 143.535 15.1621ZM143.535 32.0461H137.004V21.2924H143.535C146.523 21.2924 148.953 23.7038 148.953 26.6693C148.953 29.6348 146.523 32.0461 143.535 32.0461Z" fill="white"/>
</g>
</g>
<defs>
<clipPath id="clip0_262_5202">
<rect width="198.8" height="71" fill="white"/>
</clipPath>
</defs>
</svg>
