<svg width="157" height="81" viewBox="0 0 157 81" fill="none" xmlns="http://www.w3.org/2000/svg">
<path d="M3.99924 38V4.673H11.9025L20.6627 18.7656L29.423 4.673H37.3262V38H30.0419V16.2422L20.6627 30.4776H20.4723L11.1883 16.3851V38H3.99924ZM46.2847 38V4.673H71.4228V11.1956H53.5691V17.9562H69.2804V24.4788H53.5691V31.4774H71.6609V38H46.2847ZM79.1319 38V4.673H85.8925L101.509 25.1929V4.673H108.745V38H102.508L86.3686 16.8136V38H79.1319ZM133.885 38.5713C123.602 38.5713 116.222 30.9061 116.222 21.4317V21.3365C116.222 11.8621 123.697 4.10168 133.98 4.10168C144.264 4.10168 151.644 11.7669 151.644 21.2413V21.3365C151.644 30.8109 144.169 38.5713 133.885 38.5713ZM133.98 31.8107C139.884 31.8107 143.979 27.1449 143.979 21.4317V21.3365C143.979 15.6233 139.789 10.8623 133.885 10.8623C127.982 10.8623 123.887 15.5281 123.887 21.2413V21.3365C123.887 27.0497 128.077 31.8107 133.98 31.8107Z" fill="white"/>
<path d="M12.1458 71.6699C8.59097 71.6699 5.86133 70.4956 3.19517 68.1151L4.27433 66.8772C6.71831 69.1307 8.97185 70.1782 12.2411 70.1782C15.5738 70.1782 17.859 68.3055 17.859 65.7663V65.7028C17.859 63.3541 16.6212 61.9892 11.5745 60.9736C6.24221 59.8944 4.08389 58.0852 4.08389 54.7208V54.6573C4.08389 51.3563 7.09919 48.8171 11.2254 48.8171C14.4629 48.8171 16.5894 49.7059 18.843 51.515L17.7956 52.8164C15.7007 51.0072 13.6059 50.3089 11.1619 50.3089C7.89269 50.3089 5.73437 52.1816 5.73437 54.4986V54.5621C5.73437 56.9108 6.94049 58.3391 12.2093 59.4183C17.3512 60.4657 19.5095 62.3066 19.5095 65.5441V65.6076C19.5095 69.1942 16.4307 71.6699 12.1458 71.6699ZM31.5191 71.3525V62.5606L21.9972 49.1345H24.0602L32.3761 61.0688L40.7238 49.1345H42.6916L33.1696 62.5288V71.3525H31.5191ZM53.7265 71.6699C50.1716 71.6699 47.442 70.4956 44.7758 68.1151L45.855 66.8772C48.2989 69.1307 50.5525 70.1782 53.8217 70.1782C57.1544 70.1782 59.4397 68.3055 59.4397 65.7663V65.7028C59.4397 63.3541 58.2018 61.9892 53.1552 60.9736C47.8228 59.8944 45.6645 58.0852 45.6645 54.7208V54.6573C45.6645 51.3563 48.6798 48.8171 52.806 48.8171C56.0435 48.8171 58.1701 49.7059 60.4236 51.515L59.3762 52.8164C57.2814 51.0072 55.1865 50.3089 52.7425 50.3089C49.4733 50.3089 47.315 52.1816 47.315 54.4986V54.5621C47.315 56.9108 48.5211 58.3391 53.79 59.4183C58.9318 60.4657 61.0902 62.3066 61.0902 65.5441V65.6076C61.0902 69.1942 58.0114 71.6699 53.7265 71.6699ZM72.5166 71.3525V50.6581H64.772V49.1345H81.9116V50.6581H74.167V71.3525H72.5166ZM87.2578 71.3525V49.1345H103.064V50.6581H88.9083V59.3866H101.636V60.9101H88.9083V69.829H103.223V71.3525H87.2578ZM108.839 71.3525V49.1345H110.394L119.313 62.2749L128.232 49.1345H129.787V71.3525H128.136V52.0546L119.344 64.8458H119.218L110.426 52.0546V71.3525H108.839ZM144.234 71.6699C140.679 71.6699 137.949 70.4956 135.283 68.1151L136.362 66.8772C138.806 69.1307 141.06 70.1782 144.329 70.1782C147.662 70.1782 149.947 68.3055 149.947 65.7663V65.7028C149.947 63.3541 148.709 61.9892 143.663 60.9736C138.33 59.8944 136.172 58.0852 136.172 54.7208V54.6573C136.172 51.3563 139.187 48.8171 143.313 48.8171C146.551 48.8171 148.677 49.7059 150.931 51.515L149.884 52.8164C147.789 51.0072 145.694 50.3089 143.25 50.3089C139.981 50.3089 137.822 52.1816 137.822 54.4986V54.5621C137.822 56.9108 139.028 58.3391 144.297 59.4183C149.439 60.4657 151.598 62.3066 151.598 65.5441V65.6076C151.598 69.1942 148.519 71.6699 144.234 71.6699Z" fill="white"/>
</svg>
