<svg width="129" height="60" viewBox="0 0 129 60" fill="none" xmlns="http://www.w3.org/2000/svg">
<path d="M30.1 17.1429H40.1333V10H30.1C24.778 10 19.674 12.1071 15.9107 15.8579C12.1475 19.6086 10.0333 24.6957 10.0333 30C10.0333 35.3043 12.1475 40.3914 15.9107 44.1421C19.674 47.8929 24.778 50 30.1 50H48.4897C48.7099 50 48.928 49.9568 49.1314 49.8728C49.3349 49.7888 49.5198 49.6657 49.6755 49.5105C49.8312 49.3552 49.9547 49.171 50.039 48.9682C50.1233 48.7654 50.1667 48.5481 50.1667 48.3286V11.6702L50.1667 11.669C50.1684 10.6725 50.4998 9.70439 51.1096 8.91471C51.7194 8.12503 52.5735 7.55786 53.5396 7.3011C54.5056 7.04435 55.5297 7.11234 56.453 7.49454C57.3764 7.87673 58.1475 8.5518 58.6468 9.41512L58.6481 9.41741L81.4368 49.158L81.4383 49.1606C81.6227 49.478 81.9066 49.7262 82.2465 49.8668C82.5873 50.0079 82.9652 50.033 83.3218 49.9382C83.6783 49.8435 83.9936 49.6341 84.2186 49.3427C84.4437 49.0512 84.566 48.6939 84.5667 48.3261V11.669C84.5684 10.6725 84.8998 9.70438 85.5096 8.91471C86.1194 8.12503 86.9735 7.55786 87.9396 7.3011C88.9056 7.04435 89.9297 7.11234 90.853 7.49454C91.7764 7.87673 92.5475 8.5518 93.0468 9.41512L93.0481 9.41741L93.0494 9.41971L115.837 49.158L115.838 49.16C116.022 49.4777 116.306 49.7261 116.646 49.8668C116.987 50.0079 117.365 50.033 117.722 49.9382C118.078 49.8435 118.394 49.6341 118.619 49.3427C118.844 49.0512 118.966 48.6939 118.967 48.3261V0H111.8V27.7286L99.2727 5.88571C97.9906 3.65399 96.0048 1.90679 93.6239 0.915571C91.243 -0.0756435 88.6003 -0.255371 86.1064 0.404314C83.6125 1.064 81.407 2.52616 79.8326 4.56362C78.2582 6.60108 77.403 9.09975 77.4 11.6714V27.7286L64.8727 5.88571C63.5905 3.65399 61.6048 1.90679 59.2239 0.915571C56.843 -0.0756435 54.2003 -0.255371 51.7064 0.404314C49.2125 1.064 47.007 2.52616 45.4326 4.56362C43.8582 6.60108 43.003 9.09975 43 11.6714V41.1857C43 41.629 42.8233 42.0541 42.5088 42.3676C42.1943 42.681 41.7678 42.8571 41.323 42.8571H30.1C26.6787 42.8571 23.3975 41.5026 20.9783 39.0914C18.5591 36.6802 17.2 33.4099 17.2 30C17.2 26.5901 18.5591 23.3198 20.9783 20.9086C23.3975 18.4974 26.6787 17.1429 30.1 17.1429Z" fill="white"/>
<path d="M121.833 0H129V48.3286C128.997 50.9002 128.142 53.3989 126.567 55.4364C124.993 57.4738 122.788 58.936 120.294 59.5957C117.8 60.2554 115.157 60.0756 112.776 59.0844C110.395 58.0932 108.409 56.346 107.127 54.1143L94.6 32.2714V48.3286C94.597 50.9002 93.7418 53.3989 92.1674 55.4364C90.593 57.4738 88.3875 58.936 85.8936 59.5957C83.3997 60.2554 80.757 60.0756 78.3761 59.0844C75.9952 58.0932 74.0095 56.346 72.7273 54.1143L60.2 32.2714V48.3286C60.2 51.424 58.9662 54.3927 56.7701 56.5815C54.574 58.7703 51.5954 60 48.4897 60H30.1C22.117 60 14.4609 56.8393 8.81609 51.2132C3.17124 45.5871 0 37.9565 0 30C0 22.0435 3.17124 14.4129 8.81609 8.7868C14.4609 3.16071 22.117 0 30.1 0H40.1333V7.14286H30.1C24.0177 7.14286 18.1845 9.55101 13.8837 13.8376C9.58285 18.1241 7.16667 23.9379 7.16667 30C7.16667 36.0621 9.58285 41.8759 13.8837 46.1624C18.1845 50.449 24.0177 52.8571 30.1 52.8571H48.4897C49.0863 52.8571 49.6772 52.74 50.2285 52.5124C50.7797 52.2848 51.2806 51.9513 51.7025 51.5308C52.1244 51.1102 52.4591 50.611 52.6875 50.0616C52.9158 49.5122 53.0333 48.9233 53.0333 48.3286V11.6739C53.034 11.3061 53.1563 10.9488 53.3814 10.6573C53.6064 10.3659 53.9217 10.1565 54.2782 10.0618C54.6348 9.96701 55.0127 9.99211 55.3535 10.1332C55.6937 10.274 55.9779 10.5225 56.1622 10.8403L56.1632 10.842L78.9519 50.5826L78.9532 50.5849C79.4525 51.4482 80.2236 52.1233 81.147 52.5055C82.0703 52.8877 83.0944 52.9557 84.0604 52.6989C85.0265 52.4421 85.8806 51.875 86.4904 51.0853C87.1002 50.2956 87.4316 49.3275 87.4333 48.331V11.6739C87.434 11.3061 87.5563 10.9488 87.7814 10.6573C88.0064 10.3659 88.3217 10.1565 88.6782 10.0618C89.0348 9.96701 89.4127 9.99211 89.7535 10.1332C90.0933 10.2738 90.3771 10.5218 90.5615 10.839L90.5632 10.842L113.351 50.5803L113.352 50.5826L113.353 50.5849C113.853 51.4482 114.624 52.1233 115.547 52.5055C116.47 52.8877 117.494 52.9557 118.46 52.6989C119.426 52.4421 120.281 51.875 120.89 51.0853C121.5 50.2956 121.832 49.3275 121.833 48.331V0Z" fill="white"/>
</svg>
