<svg width="233" height="45" viewBox="0 0 233 45" fill="none" xmlns="http://www.w3.org/2000/svg">
<path fill-rule="evenodd" clip-rule="evenodd" d="M37.2069 0.500977C41.3432 1.20078 45.3699 2.43964 49.1841 4.18591C55.755 13.7932 59.0198 24.6288 57.8143 37.1311C53.3745 40.4139 48.4022 42.907 43.1156 44.501C41.9252 42.9037 40.8727 41.2081 39.9695 39.4325C41.6902 38.7894 43.3511 37.9964 44.933 37.0626C44.522 36.7841 44.1156 36.4736 43.7184 36.1494C39.1243 38.3098 34.1101 39.43 29.0334 39.43C23.9566 39.43 18.9424 38.3098 14.3484 36.1494C13.9557 36.4507 13.5493 36.7612 13.1337 37.0626C14.7126 37.9949 16.3704 38.7864 18.0881 39.4279C17.1838 41.2043 16.1313 42.9013 14.942 44.501C9.65991 42.9005 4.6914 40.4063 0.252392 37.1265C-0.77501 26.3457 1.27979 15.4097 8.85974 4.19504C12.6779 2.44849 16.7072 1.20669 20.8461 0.500977C21.4119 1.51292 21.924 2.55393 22.3804 3.6197C26.7863 2.95578 31.2668 2.95578 35.6727 3.6197C36.1288 2.55382 36.6409 1.51279 37.2069 0.500977ZM14.1611 24.7019C14.1611 27.8982 16.5264 30.4964 19.3895 30.4964C22.3073 30.4964 24.563 27.8982 24.6132 24.7019C24.6635 21.5055 22.3164 18.8845 19.3803 18.8845C16.4443 18.8845 14.1611 21.5055 14.1611 24.7019ZM33.4535 24.7019C33.4535 27.8982 35.8097 30.4964 38.6772 30.4964C41.5951 30.4964 43.8462 27.8982 43.8965 24.7019C43.9467 21.5055 41.6179 18.8845 38.6772 18.8845C35.7366 18.8845 33.4535 21.5055 33.4535 24.7019Z" fill="#5865F2"/>
<path fill-rule="evenodd" clip-rule="evenodd" d="M232.277 9.08496V32.0987H224.446V27.8977C223.855 29.3933 222.794 30.6562 221.423 31.4959C219.909 32.3584 218.187 32.788 216.446 32.7379C214.807 32.7761 213.194 32.3263 211.811 31.4457C210.472 30.5759 209.405 29.3462 208.733 27.8977C208 26.2989 207.635 24.556 207.665 22.7973C207.613 20.9739 208.002 19.1648 208.797 17.5233C209.528 16.0198 210.67 14.7535 212.089 13.8703C213.549 12.9862 215.228 12.532 216.934 12.5598C220.66 12.5598 223.164 14.1793 224.446 17.4183V9.08496H232.277ZM223.295 25.6146C223.694 25.2218 224.007 24.7501 224.214 24.2297C224.42 23.7093 224.517 23.1514 224.496 22.5918C224.513 22.0489 224.415 21.5086 224.208 21.0065C224.001 20.5044 223.69 20.0518 223.295 19.6786C222.399 18.9491 221.279 18.5509 220.124 18.5509C218.968 18.5509 217.848 18.9491 216.952 19.6786C216.559 20.0604 216.25 20.5207 216.046 21.0298C215.843 21.5388 215.748 22.085 215.77 22.6329C215.75 23.1859 215.846 23.737 216.052 24.2506C216.258 24.7642 216.569 25.2289 216.966 25.6146C217.386 26.0046 217.879 26.3069 218.417 26.5037C218.955 26.7005 219.526 26.7879 220.099 26.7608C220.681 26.7929 221.264 26.7081 221.813 26.5112C222.362 26.3144 222.866 26.0095 223.295 25.6146Z" fill="#5865F2"/>
<path fill-rule="evenodd" clip-rule="evenodd" d="M78.0205 9.72461H90.4863C93.4909 9.72461 96.0328 10.1934 98.1119 11.131C100.026 11.9358 101.652 13.3017 102.774 15.0488C103.825 16.7747 104.363 18.7637 104.327 20.784C104.35 22.8135 103.79 24.807 102.715 26.5283C101.515 28.3465 99.7992 29.7649 97.7877 30.6013C95.5838 31.6059 92.8516 32.1066 89.5913 32.1036H78.0205V9.72461ZM89.4635 26.4095C91.4879 26.4095 93.0434 25.9042 94.1302 24.8936C94.6812 24.3592 95.1117 23.7132 95.3929 22.999C95.674 22.2847 95.7993 21.5186 95.7603 20.752C95.7942 20.0404 95.683 19.3293 95.4334 18.6621C95.1837 17.9948 94.8009 17.3853 94.3083 16.8707C93.3341 15.9027 91.8684 15.4172 89.911 15.4141H86.0114V26.4095H89.4635Z" fill="#5865F2"/>
<path d="M122.993 32.0671C121.348 31.655 119.775 30.9977 118.326 30.1173V24.8114C119.591 25.7315 121.015 26.4095 122.527 26.8114C124.181 27.3159 125.899 27.5789 127.628 27.5922C128.224 27.6241 128.82 27.5211 129.372 27.2908C129.765 27.0899 129.961 26.8342 129.961 26.5694C129.965 26.4214 129.939 26.2741 129.884 26.1367C129.829 25.9993 129.746 25.8745 129.641 25.7703C129.277 25.4898 128.848 25.3032 128.395 25.2269L124.559 24.3639C122.361 23.8525 120.801 23.1447 119.879 22.2406C119.416 21.7736 119.055 21.2154 118.819 20.6015C118.583 19.9876 118.478 19.3313 118.509 18.6744C118.493 17.4839 118.927 16.3312 119.723 15.4461C120.668 14.4473 121.858 13.715 123.176 13.3228C124.871 12.79 126.641 12.5356 128.418 12.5694C130.076 12.5538 131.73 12.7471 133.34 13.1447C134.641 13.4529 135.889 13.9481 137.048 14.615V19.6379C135.962 19.0077 134.794 18.5298 133.577 18.2178C132.259 17.8644 130.901 17.6863 129.536 17.6881C127.533 17.6881 126.532 18.0291 126.532 18.7109C126.528 18.8628 126.57 19.0122 126.651 19.1406C126.732 19.2689 126.85 19.3704 126.988 19.4324C127.536 19.6651 128.109 19.8307 128.696 19.9255L131.892 20.5009C133.969 20.8662 135.517 21.5055 136.536 22.4187C137.556 23.3319 138.068 24.6683 138.071 26.4278C138.087 27.3531 137.861 28.2664 137.414 29.0771C136.968 29.8878 136.318 30.5676 135.527 31.0488C133.844 32.1782 131.44 32.7414 128.317 32.7383C126.521 32.7411 124.732 32.5156 122.993 32.0671Z" fill="#5865F2"/>
<path d="M141.482 27.7435C142.474 29.3409 143.914 30.6112 145.623 31.3964C147.709 32.3482 149.984 32.8106 152.276 32.748C155.135 32.809 157.956 32.079 160.427 30.6384V24.9763C159.588 25.464 158.693 25.846 157.76 26.1133C156.738 26.4187 155.676 26.5725 154.609 26.5699C152.542 26.5699 150.966 26.2031 149.879 25.4695C149.38 25.1804 148.966 24.7642 148.68 24.2634C148.394 23.7626 148.246 23.195 148.251 22.6183C148.256 22.0416 148.413 21.4765 148.707 20.9803C149.001 20.4842 149.421 20.0747 149.925 19.7937C151.045 19.0692 152.596 18.7069 154.578 18.7069C155.662 18.6982 156.74 18.86 157.774 19.1864C158.697 19.4735 159.574 19.8934 160.377 20.433V14.5745C158.267 13.232 155.614 12.5608 152.418 12.5608C150.133 12.5022 147.864 12.9448 145.769 13.8576C144.046 14.6092 142.58 15.8469 141.55 17.4193C140.584 18.9597 140.084 20.7471 140.112 22.5654C140.082 24.3847 140.556 26.1769 141.482 27.7435Z" fill="#5865F2"/>
<path fill-rule="evenodd" clip-rule="evenodd" d="M168.335 31.3959C166.607 30.6068 165.142 29.3391 164.112 27.7429C163.141 26.1801 162.637 24.3724 162.66 22.5328C162.629 20.7151 163.134 18.9284 164.112 17.3959C165.147 15.8402 166.606 14.6138 168.317 13.8616C172.519 12.1568 177.22 12.1568 181.422 13.8616C183.126 14.608 184.58 15.8285 185.609 17.3776C186.581 18.9158 187.081 20.7047 187.048 22.5237C187.07 24.3614 186.572 26.168 185.609 27.7338C184.591 29.3311 183.132 30.5997 181.409 31.3867C179.343 32.2725 177.119 32.7292 174.872 32.7292C172.625 32.7292 170.401 32.2725 168.335 31.3867V31.3959ZM178.048 25.7246C178.443 25.3169 178.75 24.8328 178.951 24.302C179.152 23.7712 179.243 23.2049 179.217 22.6379C179.244 22.0761 179.155 21.5148 178.953 20.9897C178.752 20.4645 178.444 19.987 178.048 19.5876C177.618 19.1938 177.114 18.8901 176.565 18.6948C176.016 18.4995 175.433 18.4165 174.851 18.4507C174.27 18.4201 173.688 18.5048 173.14 18.6999C172.591 18.8951 172.087 19.1967 171.655 19.5876C171.261 19.9879 170.953 20.4657 170.753 20.9907C170.553 21.5157 170.463 22.0766 170.491 22.6379C170.465 23.2045 170.555 23.7704 170.755 24.301C170.955 24.8317 171.262 25.3161 171.655 25.7246C172.082 26.1234 172.586 26.432 173.135 26.6321C173.684 26.8321 174.268 26.9195 174.851 26.889C175.435 26.923 176.02 26.8372 176.57 26.637C177.12 26.4368 177.622 26.1263 178.048 25.7246Z" fill="#5865F2"/>
<path d="M206.258 20.6562V13.7429C205.382 13.2141 204.372 12.9479 203.349 12.9758C202.664 12.9551 201.983 13.0832 201.352 13.3512C200.722 13.6193 200.157 14.0208 199.696 14.5283C198.746 15.5603 198.058 17.163 197.632 19.3365V13.4004H189.961V32.0991H197.792V26.2178C197.792 24.0443 198.249 22.4415 199.162 21.4096C200.075 20.3776 201.39 19.8571 203.093 19.8571C204.204 19.809 205.304 20.0867 206.258 20.6562Z" fill="#5865F2"/>
<path d="M110.93 15.3916C113.086 15.3916 114.834 13.8216 114.834 11.8848C114.834 9.948 113.086 8.37793 110.93 8.37793C108.773 8.37793 107.025 9.948 107.025 11.8848C107.025 13.8216 108.773 15.3916 110.93 15.3916Z" fill="#5865F2"/>
<path d="M110.926 18.5942C109.584 18.5942 108.256 18.3264 107.02 17.8066V32.1993H114.832V17.8066C113.596 18.3264 112.268 18.5942 110.926 18.5942Z" fill="#5865F2"/>
</svg>
