<svg width="207" height="40" viewBox="0 0 207 40" fill="none" xmlns="http://www.w3.org/2000/svg">
<path d="M13.06 9.72854C13.06 7.34894 13.7633 6.27005 16.1958 6.27005L19.6442 6.27762V0.275679C18.1388 0.0924194 16.6233 0.00243019 15.1068 0.00595926C7.86978 0.00595926 5.27594 3.40394 5.27594 9.83693V13.6761H0.0302734V20.0536H5.27594V39.408H13.0625V20.0536H18.898L19.5484 13.6761H13.06V9.72854Z" fill="#1877F2"/>
<path fill-rule="evenodd" clip-rule="evenodd" d="M30.6287 13.1269C23.4925 13.1269 20.0869 18.5415 20.0869 25.7308V27.3466C20.0869 34.5434 23.4925 39.9504 30.6287 39.9504C34.5207 39.9504 36.9532 38.0044 38.0346 35.5164V39.4084H45.4935V13.6765H38.0346V17.6139C36.8978 15.1284 34.5207 13.1269 30.6287 13.1269ZM32.8974 33.8401C29.2751 33.8401 27.871 31.2991 27.871 27.4625V25.635C27.871 21.7984 29.2751 19.2574 32.8974 19.2574C36.0886 19.2574 37.7095 21.5816 37.7095 25.2569V27.8406C37.7095 31.5159 36.0886 33.8401 32.8974 33.8401Z" fill="#1877F2"/>
<path d="M61.7102 13.1348C64.7351 13.1348 67.6012 13.7851 69.1691 14.864L67.4398 20.3794C65.818 19.6071 64.0459 19.2007 62.2496 19.1896C58.0324 19.1896 56.1998 21.6222 56.1998 25.7865V27.2989C56.1998 31.4632 58.0375 33.8958 62.2496 33.8958C64.0459 33.8844 65.818 33.4783 67.4398 32.706L69.1691 38.2189C67.6012 39.3003 64.7376 39.9506 61.7102 39.9506C52.5725 39.9506 48.4107 35.0301 48.4107 27.1376V25.9478C48.4107 18.0553 52.5725 13.1348 61.7102 13.1348Z" fill="#1877F2"/>
<path fill-rule="evenodd" clip-rule="evenodd" d="M70.2013 25.2569V27.5256C70.2013 35.0878 73.8765 40.0033 83.7301 40.0059C87.4583 40.0059 91.6755 39.1967 93.7299 38.1128L92.3057 32.7814C90.0345 33.7544 86.9541 34.3493 84.0326 34.3493C79.7146 34.3493 78.1467 32.7814 77.9828 29.2674H94.3677V25.1586C94.3677 18.0223 90.8537 13.1572 82.8529 13.1572C74.363 13.1572 70.2013 17.9593 70.2013 25.2569ZM87.3927 24.1729H77.9853V24.1629C77.9853 20.7044 79.339 18.4861 82.8554 18.4836C86.2584 18.4836 87.3927 20.7145 87.3927 23.5251V24.1729Z" fill="#1877F2"/>
<path fill-rule="evenodd" clip-rule="evenodd" d="M123.221 27.3547C123.221 34.5439 119.762 39.9585 112.634 39.9585C108.741 39.9585 106.039 38.0125 104.958 35.5245V39.4165H97.6074V0.755606L105.391 0.0497916V17.2414C106.526 14.9727 109.014 13.1326 112.636 13.1326C119.772 13.1326 123.223 18.5396 123.223 25.7364L123.221 27.3547ZM115.437 25.57C115.437 21.9477 114.033 19.2454 110.302 19.2454C107.111 19.2454 105.381 21.5141 105.381 25.1919V27.8941C105.381 31.5694 107.111 33.8406 110.302 33.8406C114.033 33.8406 115.437 31.1384 115.437 27.516V25.57Z" fill="#1877F2"/>
<path fill-rule="evenodd" clip-rule="evenodd" d="M125.83 25.8949V27.1905C125.83 34.5965 130.049 39.9506 138.645 39.9506C147.241 39.9506 151.458 34.5965 151.458 27.1905V25.8949C151.458 18.4863 147.238 13.1348 138.643 13.1348C130.047 13.1348 125.83 18.4863 125.83 25.8949ZM138.63 19.2451C142.265 19.2451 143.671 21.9473 143.671 25.3529V27.7325C143.671 31.138 142.252 33.8403 138.63 33.8403C135.008 33.8403 133.601 31.138 133.601 27.7325V25.3529C133.601 21.9473 134.995 19.2451 138.63 19.2451Z" fill="#1877F2"/>
<path fill-rule="evenodd" clip-rule="evenodd" d="M154.036 27.1905V25.8949C154.036 18.4863 158.253 13.1348 166.849 13.1348C175.445 13.1348 179.662 18.4863 179.662 25.8949V27.1905C179.662 34.5965 175.445 39.9506 166.849 39.9506C158.253 39.9506 154.036 34.5965 154.036 27.1905ZM171.878 25.3529C171.878 21.9473 170.472 19.2451 166.849 19.2451C163.227 19.2451 161.823 21.9473 161.823 25.3529V27.7325C161.823 31.138 163.227 33.8403 166.849 33.8403C170.472 33.8403 171.878 31.138 171.878 27.7325V25.3529Z" fill="#1877F2"/>
<path d="M198.041 13.677L190.365 25.9481V0.0497916L182.579 0.755606V39.409H190.365V26.8052L198.366 39.409H206.637L198.258 26.3817L206.312 13.677H198.041Z" fill="#1877F2"/>
</svg>
