<svg width="29" height="26" viewBox="0 0 29 26" fill="none" xmlns="http://www.w3.org/2000/svg">
<path d="M7.93613 5.56875C7.84385 5.25917 7.6541 4.98765 7.39509 4.79459C7.13609 4.60152 6.82168 4.49723 6.49863 4.49723C6.17559 4.49723 5.86118 4.60152 5.60217 4.79459C5.34317 4.98765 5.15341 5.25917 5.06113 5.56875L0.561132 20.5688C0.493847 20.7929 0.479946 21.0297 0.520539 21.2602C0.561133 21.4907 0.655095 21.7085 0.794913 21.8961C0.93473 22.0838 1.11652 22.2362 1.32575 22.341C1.53498 22.4459 1.76585 22.5003 1.99988 22.5H10.9999C11.2337 22.4999 11.4643 22.4452 11.6732 22.3402C11.8821 22.2352 12.0636 22.0828 12.2031 21.8951C12.3426 21.7075 12.4364 21.4899 12.4768 21.2596C12.5173 21.0293 12.5034 20.7927 12.4361 20.5688L7.93613 5.56875ZM4.01613 19.5L6.49988 11.22L8.98363 19.5H4.01613ZM25.4999 7.25C25.4999 5.91498 25.104 4.60994 24.3623 3.4999C23.6206 2.38987 22.5664 1.52471 21.333 1.01382C20.0996 0.502925 18.7424 0.369252 17.433 0.629702C16.1237 0.890153 14.9209 1.53303 13.9769 2.47703C13.0329 3.42104 12.39 4.62377 12.1296 5.93314C11.8691 7.24252 12.0028 8.59972 12.5137 9.83312C13.0246 11.0665 13.8898 12.1207 14.9998 12.8624C16.1098 13.6041 17.4149 14 18.7499 14C20.5395 13.998 22.2552 13.2862 23.5207 12.0208C24.7861 10.7553 25.4979 9.03961 25.4999 7.25ZM14.9999 7.25C14.9999 6.50832 15.2198 5.7833 15.6319 5.16662C16.0439 4.54993 16.6296 4.06928 17.3148 3.78546C18 3.50163 18.754 3.42736 19.4815 3.57206C20.2089 3.71675 20.8771 4.07391 21.4015 4.59835C21.926 5.1228 22.2831 5.79099 22.4278 6.51842C22.5725 7.24584 22.4983 7.99984 22.2144 8.68507C21.9306 9.37029 21.45 9.95596 20.8333 10.368C20.2166 10.7801 19.4916 11 18.7499 11C17.7553 11 16.8015 10.6049 16.0982 9.90165C15.395 9.19839 14.9999 8.24457 14.9999 7.25ZM26.9999 16H15.9999C15.6021 16 15.2205 16.158 14.9392 16.4393C14.6579 16.7206 14.4999 17.1022 14.4999 17.5V24C14.4999 24.3978 14.6579 24.7794 14.9392 25.0607C15.2205 25.342 15.6021 25.5 15.9999 25.5H26.9999C27.3977 25.5 27.7792 25.342 28.0605 25.0607C28.3418 24.7794 28.4999 24.3978 28.4999 24V17.5C28.4999 17.1022 28.3418 16.7206 28.0605 16.4393C27.7792 16.158 27.3977 16 26.9999 16ZM25.4999 22.5H17.4999V19H25.4999V22.5Z" fill="url(#paint0_linear_459_4263)"/>
<defs>
<linearGradient id="paint0_linear_459_4263" x1="0.497803" y1="0.5" x2="28.557" y2="0.594296" gradientUnits="userSpaceOnUse">
<stop stop-color="#6CCAFF"/>
<stop offset="0.5" stop-color="#6D85FE"/>
<stop offset="1" stop-color="#9B49F0"/>
</linearGradient>
</defs>
</svg>
