<svg width="164" height="40" viewBox="0 0 164 40" fill="none" xmlns="http://www.w3.org/2000/svg">
<path d="M161.143 34.541C160.428 34.5479 159.745 34.8377 159.243 35.347C158.74 35.8564 158.461 36.5439 158.464 37.2591C158.467 37.9743 158.754 38.659 159.261 39.1635C159.768 39.668 160.454 39.9513 161.169 39.9513C161.884 39.9513 162.57 39.668 163.077 39.1635C163.584 38.659 163.871 37.9743 163.874 37.2591C163.878 36.5439 163.598 35.8564 163.096 35.347C162.594 34.8377 161.91 34.5479 161.195 34.541H161.143ZM161.143 39.6416C160.674 39.6494 160.213 39.5179 159.819 39.2638C159.424 39.0097 159.114 38.6443 158.928 38.2139C158.741 37.7835 158.686 37.3074 158.77 36.8458C158.854 36.3842 159.072 35.9578 159.399 35.6206C159.725 35.2834 160.144 35.0505 160.602 34.9513C161.061 34.8521 161.538 34.8911 161.975 35.0634C162.411 35.2357 162.787 35.5336 163.054 35.9193C163.321 36.3049 163.468 36.7612 163.475 37.2303V37.2701C163.489 37.8854 163.257 38.4808 162.831 38.9253C162.405 39.3698 161.82 39.627 161.205 39.6403H161.144M150.759 33.8019H144.881V24.5964C144.881 22.4013 144.842 19.5754 141.823 19.5754C138.762 19.5754 138.293 21.9671 138.293 24.4366V33.8013H132.415V14.871H138.058V17.4581H138.137C138.702 16.4925 139.518 15.6981 140.499 15.1596C141.479 14.6211 142.587 14.3587 143.705 14.4002C149.663 14.4002 150.761 18.319 150.761 23.4171L150.759 33.8019ZM125.783 12.2834C125.108 12.2835 124.448 12.0836 123.887 11.7088C123.326 11.3341 122.889 10.8014 122.631 10.1782C122.372 9.5549 122.305 8.86903 122.436 8.2073C122.568 7.54557 122.893 6.93769 123.37 6.46054C123.847 5.98339 124.454 5.6584 125.116 5.52666C125.778 5.39491 126.464 5.46234 127.087 5.72042C127.71 5.97849 128.243 6.41562 128.618 6.97652C128.993 7.53742 129.193 8.19691 129.193 8.87158C129.193 9.31954 129.105 9.76314 128.934 10.177C128.762 10.5909 128.511 10.967 128.195 11.2838C127.878 11.6007 127.502 11.852 127.088 12.0235C126.674 12.195 126.231 12.2833 125.783 12.2834ZM128.722 33.8019H122.837V14.871H128.722V33.8019ZM153.689 0.00221358H119.884C119.116 -0.00644536 118.377 0.289875 117.828 0.826061C117.279 1.36225 116.966 2.09443 116.956 2.86172V36.8078C116.965 37.5754 117.279 38.3081 117.828 38.8449C118.376 39.3816 119.116 39.6785 119.884 39.6703H153.689C154.459 39.68 155.2 39.3839 155.751 38.8472C156.302 38.3105 156.618 37.577 156.629 36.8078V2.85927C156.618 2.09046 156.302 1.35744 155.751 0.821272C155.2 0.285099 154.458 -0.0103754 153.689 -0.000235673M100.957 19.4401C98.0179 19.4401 96.2545 21.4026 96.2545 24.2621C96.2545 27.1216 98.0173 29.0859 100.957 29.0859C103.897 29.0859 105.664 27.1265 105.664 24.2621C105.664 21.3977 103.9 19.4401 100.957 19.4401ZM111.076 33.7909H105.664V31.2804H105.584C104.905 32.1936 104.024 32.9376 103.011 33.4547C101.997 33.9717 100.878 34.2477 99.7397 34.2612C94.0918 34.2612 90.3713 30.185 90.3713 24.4207C90.3713 19.1266 93.6637 14.2654 99.076 14.2654C101.509 14.2654 103.781 14.931 105.114 16.7759H105.191V5.86389H111.075L111.076 33.7909ZM82.824 22.1276C82.8352 21.6507 82.7495 21.1764 82.5721 20.7336C82.3947 20.2908 82.1292 19.8886 81.7918 19.5514C81.4544 19.2142 81.052 18.9491 80.6091 18.7719C80.1662 18.5948 79.6919 18.5095 79.215 18.521C78.1879 18.4571 77.1769 18.7994 76.3998 19.474C75.6228 20.1487 75.142 21.1017 75.0611 22.1276H82.824ZM87.8033 30.5163C86.8265 31.7008 85.5985 32.6532 84.2082 33.3046C82.8179 33.956 81.3002 34.2901 79.7648 34.2826C73.8866 34.2826 69.1804 30.3589 69.1804 24.2829C69.1804 18.2069 73.886 14.285 79.7648 14.285C85.2591 14.285 88.7046 18.2038 88.7046 24.2829V26.126H75.0611C75.2309 27.1712 75.7728 28.1199 76.5869 28.7971C77.401 29.4744 78.4324 29.8346 79.4911 29.8115C80.3278 29.8063 81.1499 29.5919 81.8826 29.1879C82.6153 28.7839 83.2353 28.203 83.6861 27.4982L87.8033 30.5163ZM29.3678 14.8661H35.0127V17.4532H35.0929C35.6567 16.4872 36.4724 15.6925 37.4527 15.1539C38.433 14.6153 39.5411 14.3531 40.6588 14.3953C46.6197 14.3953 47.717 18.3171 47.717 23.4122V33.7934H41.8388V24.5897C41.8388 22.3927 41.7984 19.5687 38.7772 19.5687C35.7218 19.5687 35.2503 21.961 35.2503 24.4299V33.7909H29.3721L29.3678 14.8661ZM50.6977 5.86573H56.5759V22.5605L63.2379 14.8557H70.4448L62.7297 23.6198L70.2826 33.8025H62.8944L56.6543 24.4452H56.5772V33.8013H50.6989L50.6977 5.86573ZM20.2302 14.8643H26.1084V33.7946H20.2302V14.8643ZM23.1693 5.45303C23.8437 5.45315 24.503 5.65325 25.0636 6.02801C25.6243 6.40278 26.0613 6.93539 26.3193 7.55849C26.5773 8.18159 26.6447 8.8672 26.5131 9.52863C26.3814 10.1901 26.0566 10.7976 25.5797 11.2744C25.1028 11.7513 24.4952 12.076 23.8337 12.2075C23.1723 12.339 22.4867 12.2715 21.8636 12.0134C21.2406 11.7552 20.708 11.3182 20.3334 10.7574C19.9587 10.1967 19.7587 9.53741 19.7587 8.86301C19.7587 8.41515 19.847 7.97168 20.0184 7.55792C20.1898 7.14417 20.441 6.76823 20.7577 6.45157C21.0744 6.13492 21.4504 5.88375 21.8642 5.71242C22.278 5.54109 22.7215 5.45295 23.1693 5.45303ZM0.0783691 5.87002H6.19722V28.1582H17.525V33.805H0.0783691V5.87002ZM161.572 37.4176C161.673 37.4186 161.773 37.399 161.866 37.3598C161.958 37.3206 162.042 37.2628 162.112 37.19C162.181 37.1171 162.235 37.0307 162.269 36.9362C162.304 36.8417 162.319 36.7411 162.313 36.6406C162.313 36.0895 161.981 35.8262 161.299 35.8262H160.197V38.7115H160.611V37.4538H161.12L161.132 37.4691L161.923 38.7115H162.366L161.515 37.4256L161.572 37.4176ZM161.093 37.1286H160.612V36.1532H161.222C161.536 36.1532 161.895 36.2046 161.895 36.6167C161.895 37.0907 161.532 37.1286 161.09 37.1286" fill="#2867B2"/>
</svg>
