<svg width="578" height="32" viewBox="0 0 578 32" fill="none" xmlns="http://www.w3.org/2000/svg">
<path d="M577.967 15.9547C577.967 19.187 577.391 22.0001 576.239 24.3941C575.088 26.7779 573.502 28.6264 571.482 29.9395C569.472 31.2426 567.159 31.8941 564.542 31.8941C561.926 31.8941 559.608 31.2426 557.588 29.9395C555.578 28.6264 553.997 26.7779 552.845 24.3941C551.704 22.0001 551.133 19.187 551.133 15.9547C551.133 12.7223 551.704 9.91427 552.845 7.53043C553.997 5.13649 555.583 3.288 557.603 1.98497C559.623 0.671842 561.936 0.0152778 564.542 0.0152778C567.159 0.0152778 569.472 0.671842 571.482 1.98497C573.502 3.288 575.088 5.13649 576.239 7.53043C577.391 9.91427 577.967 12.7223 577.967 15.9547ZM575.209 15.9547C575.209 13.1769 574.744 10.7981 573.815 8.81831C572.886 6.82841 571.618 5.30821 570.012 4.2577C568.406 3.2072 566.583 2.68194 564.542 2.68194C562.512 2.68194 560.694 3.2072 559.088 4.2577C557.482 5.30821 556.209 6.82336 555.27 8.80316C554.34 10.783 553.876 13.1668 553.876 15.9547C553.876 18.7324 554.34 21.1112 555.27 23.091C556.199 25.0708 557.467 26.591 559.073 27.6516C560.679 28.7021 562.502 29.2274 564.542 29.2274C566.583 29.2274 568.406 28.7021 570.012 27.6516C571.628 26.6011 572.901 25.086 573.83 23.1062C574.76 21.1163 575.219 18.7324 575.209 15.9547Z" fill="url(#paint0_linear_12_362)"/>
<path d="M522.944 0.438889V31.4692H520.111V0.438889H522.944Z" fill="url(#paint1_linear_12_362)"/>
<path d="M477.246 31.4692H468.155V0.438889H477.792C480.751 0.438889 483.282 1.05505 485.383 2.28737C487.494 3.5197 489.11 5.28737 490.231 7.5904C491.352 9.89343 491.913 12.6561 491.913 15.8783C491.913 19.1308 491.337 21.9237 490.186 24.2571C489.044 26.5803 487.378 28.3631 485.186 29.6056C483.004 30.848 480.357 31.4692 477.246 31.4692ZM470.989 28.9237H477.08C479.746 28.9237 481.979 28.3985 483.777 27.348C485.575 26.2975 486.923 24.7975 487.822 22.848C488.721 20.8985 489.171 18.5753 489.171 15.8783C489.16 13.2015 488.716 10.8985 487.837 8.96919C486.969 7.0399 485.676 5.5601 483.958 4.5298C482.251 3.49949 480.14 2.98434 477.625 2.98434H470.989V28.9237Z" fill="url(#paint2_linear_12_362)"/>
<path d="M435.748 0.438889H438.582V20.9843C438.582 23.0955 438.087 24.9843 437.097 26.651C436.107 28.3076 434.728 29.6157 432.96 30.5753C431.203 31.5247 429.157 31.9995 426.824 31.9995C424.501 31.9995 422.455 31.5197 420.688 30.5601C418.92 29.6005 417.541 28.2924 416.551 26.6359C415.561 24.9793 415.067 23.0955 415.067 20.9843V0.438889H417.9V20.7874C417.9 22.4338 418.269 23.9035 419.006 25.1965C419.743 26.4793 420.779 27.4894 422.112 28.2268C423.455 28.9641 425.026 29.3328 426.824 29.3328C428.622 29.3328 430.193 28.9641 431.536 28.2268C432.88 27.4894 433.915 26.4793 434.642 25.1965C435.38 23.9035 435.748 22.4338 435.748 20.7874V0.438889Z" fill="url(#paint3_linear_12_362)"/>
<path d="M364.855 2.98434V0.438889H387.355V2.98434H377.522V31.4692H374.689V2.98434H364.855Z" fill="url(#paint4_linear_12_362)"/>
<path d="M335.413 8.19697C335.241 6.4697 334.479 5.09596 333.125 4.07576C331.772 3.05556 330.07 2.54545 328.019 2.54545C326.575 2.54545 325.302 2.79293 324.201 3.28788C323.11 3.78283 322.251 4.4697 321.625 5.34848C321.009 6.21717 320.701 7.20707 320.701 8.31818C320.701 9.13636 320.878 9.85354 321.231 10.4697C321.585 11.0859 322.059 11.6162 322.655 12.0606C323.262 12.4949 323.928 12.8687 324.655 13.1818C325.393 13.495 326.135 13.7576 326.883 13.9697L330.155 14.9091C331.145 15.1818 332.135 15.5303 333.125 15.9545C334.115 16.3788 335.019 16.9141 335.837 17.5606C336.666 18.197 337.327 18.9798 337.822 19.9091C338.327 20.8283 338.58 21.9343 338.58 23.2273C338.58 24.8838 338.15 26.3737 337.292 27.697C336.433 29.0202 335.201 30.0707 333.595 30.8485C331.989 31.6162 330.065 32 327.822 32C325.711 32 323.878 31.6515 322.322 30.9545C320.767 30.2475 319.544 29.2727 318.655 28.0303C317.767 26.7879 317.267 25.3485 317.155 23.7121H320.065C320.166 24.9343 320.57 25.9697 321.277 26.8182C321.984 27.6667 322.903 28.3131 324.034 28.7576C325.166 29.1919 326.428 29.4091 327.822 29.4091C329.368 29.4091 330.741 29.1515 331.943 28.6364C333.155 28.1111 334.105 27.3838 334.792 26.4545C335.489 25.5152 335.837 24.4242 335.837 23.1818C335.837 22.1313 335.565 21.2525 335.019 20.5455C334.474 19.8283 333.711 19.2273 332.731 18.7424C331.762 18.2576 330.635 17.8283 329.352 17.4545L325.64 16.3636C323.206 15.6364 321.317 14.6313 319.974 13.3485C318.63 12.0657 317.958 10.4293 317.958 8.43939C317.958 6.77273 318.403 5.30808 319.292 4.04545C320.191 2.77273 321.403 1.78283 322.928 1.07576C324.464 0.358585 326.186 0 328.095 0C330.024 0 331.731 0.353536 333.216 1.06061C334.701 1.76768 335.878 2.74242 336.746 3.98485C337.625 5.21717 338.095 6.62121 338.155 8.19697H335.413Z" fill="url(#paint5_linear_12_362)"/>
<path d="M269.133 31.4692V0.438889H290.77V6.5298H276.633V12.8934H289.664V18.9995H276.633V25.3783H290.77V31.4692H269.133Z" fill="url(#paint6_linear_12_362)"/>
<path d="M235.452 10.5759C235.281 9.93952 235.028 9.37892 234.695 8.89407C234.362 8.39912 233.952 7.97993 233.468 7.63649C232.983 7.29306 232.427 7.03548 231.801 6.86376C231.175 6.68194 230.488 6.59103 229.74 6.59103C228.235 6.59103 226.932 6.95467 225.831 7.68194C224.74 8.40922 223.897 9.46982 223.301 10.8638C222.705 12.2476 222.407 13.9294 222.407 15.9092C222.407 17.8991 222.695 19.5961 223.271 21.0001C223.846 22.4042 224.68 23.4749 225.771 24.2122C226.861 24.9496 228.185 25.3183 229.74 25.3183C231.114 25.3183 232.276 25.0961 233.225 24.6516C234.185 24.1971 234.912 23.5557 235.407 22.7274C235.902 21.8991 236.149 20.9244 236.149 19.8032L237.543 19.9698H229.998V14.5001H243.377V18.6062C243.377 21.384 242.786 23.7628 241.604 25.7426C240.432 27.7223 238.816 29.2426 236.755 30.3032C234.705 31.3638 232.346 31.8941 229.68 31.8941C226.72 31.8941 224.119 31.2527 221.877 29.9698C219.634 28.687 217.887 26.8587 216.634 24.485C215.382 22.1011 214.755 19.2729 214.755 16.0001C214.755 13.4547 215.134 11.1971 215.892 9.2274C216.649 7.2476 217.705 5.57083 219.058 4.1971C220.422 2.82336 221.998 1.78295 223.786 1.07588C225.584 0.368813 227.518 0.0152778 229.589 0.0152778C231.387 0.0152778 233.058 0.272854 234.604 0.788006C236.159 1.30316 237.533 2.03043 238.725 2.96982C239.927 3.90922 240.902 5.02538 241.649 6.31831C242.397 7.61124 242.861 9.03043 243.043 10.5759H235.452Z" fill="url(#paint7_linear_12_362)"/>
<path d="M174.058 31.4692H162.589V0.438889H174.043C177.205 0.438889 179.927 1.0601 182.21 2.30253C184.503 3.53485 186.271 5.31263 187.513 7.63586C188.755 9.94899 189.377 12.7167 189.377 15.9389C189.377 19.1712 188.755 21.949 187.513 24.2722C186.281 26.5955 184.518 28.3783 182.225 29.6207C179.932 30.853 177.21 31.4692 174.058 31.4692ZM170.089 25.0753H173.771C175.508 25.0753 176.978 24.7823 178.18 24.1965C179.392 23.6005 180.306 22.6359 180.922 21.3025C181.548 19.9591 181.862 18.1712 181.862 15.9389C181.862 13.7066 181.548 11.9288 180.922 10.6056C180.296 9.27222 179.372 8.31263 178.149 7.72677C176.937 7.13081 175.442 6.83283 173.665 6.83283H170.089V25.0753Z" fill="url(#paint8_linear_12_362)"/>
<path d="M49.6999 31.4692V0.438889H62.5181C64.8413 0.438889 66.8463 0.85808 68.5332 1.69646C70.2302 2.52475 71.5383 3.71667 72.4574 5.27222C73.3766 6.81768 73.8362 8.65101 73.8362 10.7722C73.8362 12.9237 73.3665 14.752 72.4271 16.2571C71.4877 17.752 70.1544 18.8934 68.4271 19.6813C66.6999 20.4591 64.6544 20.848 62.2908 20.848H54.1847V14.9389H60.8968C62.0282 14.9389 62.9726 14.7924 63.7302 14.4995C64.4978 14.1965 65.0787 13.7419 65.4726 13.1359C65.8665 12.5197 66.0635 11.7318 66.0635 10.7722C66.0635 9.81263 65.8665 9.0197 65.4726 8.39344C65.0787 7.75707 64.4978 7.28232 63.7302 6.96919C62.9625 6.64596 62.0181 6.48434 60.8968 6.48434H57.1999V31.4692H49.6999ZM67.1696 17.2874L74.8968 31.4692H66.715L59.1393 17.2874H67.1696Z" fill="url(#paint9_linear_12_362)"/>
<path d="M0.0332031 31.4692V0.438889H12.9726C15.2958 0.438889 17.2403 0.767171 18.8059 1.42374C20.3817 2.0803 21.5635 2.99949 22.3514 4.18131C23.1494 5.36313 23.5484 6.73182 23.5484 8.28737C23.5484 9.46919 23.3009 10.5247 22.8059 11.454C22.311 12.3732 21.6292 13.1359 20.7605 13.7419C19.8918 14.348 18.8867 14.7722 17.7453 15.0146V15.3177C18.9979 15.3783 20.1544 15.7167 21.215 16.3328C22.2857 16.949 23.1443 17.8076 23.7908 18.9086C24.4372 19.9995 24.7605 21.2924 24.7605 22.7874C24.7605 24.454 24.3362 25.9439 23.4878 27.2571C22.6393 28.5601 21.412 29.5904 19.8059 30.348C18.1999 31.0955 16.2504 31.4692 13.9574 31.4692H0.0332031ZM7.5332 25.4237H12.1696C13.7958 25.4237 14.9928 25.1157 15.7605 24.4995C16.5383 23.8833 16.9271 23.0247 16.9271 21.9237C16.9271 21.1258 16.7403 20.4389 16.3665 19.8631C15.9928 19.2773 15.4625 18.8278 14.7756 18.5146C14.0888 18.1914 13.2655 18.0298 12.3059 18.0298H7.5332V25.4237ZM7.5332 13.1965H11.6847C12.5029 13.1965 13.2302 13.0601 13.8665 12.7874C14.5029 12.5146 14.9979 12.1207 15.3514 11.6056C15.715 11.0904 15.8968 10.4692 15.8968 9.74192C15.8968 8.70152 15.5282 7.88333 14.7908 7.28737C14.0534 6.69141 13.0585 6.39344 11.8059 6.39344H7.5332V13.1965Z" fill="url(#paint10_linear_12_362)"/>
<path fill-rule="evenodd" clip-rule="evenodd" d="M111.466 25.7805H102.933V31.4694H117.155V0.182487L111.466 0.180756V25.7805Z" fill="white"/>
<path fill-rule="evenodd" clip-rule="evenodd" d="M128.533 5.86943H137.066V0.180542H122.844V31.4675L128.533 31.4692V5.86943Z" fill="white"/>
<defs>
<linearGradient id="paint0_linear_12_362" x1="0.0332031" y1="0" x2="577.455" y2="31.2889" gradientUnits="userSpaceOnUse">
<stop stop-color="#6CCAFF"/>
<stop offset="0.5" stop-color="#6D85FE"/>
<stop offset="1" stop-color="#9B49F0"/>
</linearGradient>
<linearGradient id="paint1_linear_12_362" x1="0.0332031" y1="0" x2="577.455" y2="31.2889" gradientUnits="userSpaceOnUse">
<stop stop-color="#6CCAFF"/>
<stop offset="0.5" stop-color="#6D85FE"/>
<stop offset="1" stop-color="#9B49F0"/>
</linearGradient>
<linearGradient id="paint2_linear_12_362" x1="0.0332031" y1="0" x2="577.455" y2="31.2889" gradientUnits="userSpaceOnUse">
<stop stop-color="#6CCAFF"/>
<stop offset="0.5" stop-color="#6D85FE"/>
<stop offset="1" stop-color="#9B49F0"/>
</linearGradient>
<linearGradient id="paint3_linear_12_362" x1="0.0332031" y1="0" x2="577.455" y2="31.2889" gradientUnits="userSpaceOnUse">
<stop stop-color="#6CCAFF"/>
<stop offset="0.5" stop-color="#6D85FE"/>
<stop offset="1" stop-color="#9B49F0"/>
</linearGradient>
<linearGradient id="paint4_linear_12_362" x1="0.0332031" y1="0" x2="577.455" y2="31.2889" gradientUnits="userSpaceOnUse">
<stop stop-color="#6CCAFF"/>
<stop offset="0.5" stop-color="#6D85FE"/>
<stop offset="1" stop-color="#9B49F0"/>
</linearGradient>
<linearGradient id="paint5_linear_12_362" x1="0.0332031" y1="0" x2="577.455" y2="31.2889" gradientUnits="userSpaceOnUse">
<stop stop-color="#6CCAFF"/>
<stop offset="0.5" stop-color="#6D85FE"/>
<stop offset="1" stop-color="#9B49F0"/>
</linearGradient>
<linearGradient id="paint6_linear_12_362" x1="0.0332031" y1="0" x2="577.455" y2="31.2889" gradientUnits="userSpaceOnUse">
<stop stop-color="#6CCAFF"/>
<stop offset="0.5" stop-color="#6D85FE"/>
<stop offset="1" stop-color="#9B49F0"/>
</linearGradient>
<linearGradient id="paint7_linear_12_362" x1="0.0332031" y1="0" x2="577.455" y2="31.2889" gradientUnits="userSpaceOnUse">
<stop stop-color="#6CCAFF"/>
<stop offset="0.5" stop-color="#6D85FE"/>
<stop offset="1" stop-color="#9B49F0"/>
</linearGradient>
<linearGradient id="paint8_linear_12_362" x1="0.0332031" y1="0" x2="577.455" y2="31.2889" gradientUnits="userSpaceOnUse">
<stop stop-color="#6CCAFF"/>
<stop offset="0.5" stop-color="#6D85FE"/>
<stop offset="1" stop-color="#9B49F0"/>
</linearGradient>
<linearGradient id="paint9_linear_12_362" x1="0.0332031" y1="0" x2="577.455" y2="31.2889" gradientUnits="userSpaceOnUse">
<stop stop-color="#6CCAFF"/>
<stop offset="0.5" stop-color="#6D85FE"/>
<stop offset="1" stop-color="#9B49F0"/>
</linearGradient>
<linearGradient id="paint10_linear_12_362" x1="0.0332031" y1="0" x2="577.455" y2="31.2889" gradientUnits="userSpaceOnUse">
<stop stop-color="#6CCAFF"/>
<stop offset="0.5" stop-color="#6D85FE"/>
<stop offset="1" stop-color="#9B49F0"/>
</linearGradient>
</defs>
</svg>
