<svg width="269" height="16" viewBox="0 0 269 16" fill="none" xmlns="http://www.w3.org/2000/svg">
<path d="M68.5629 2.93821H64.2822V15.7868L61.4284 15.7859V0.0829468H68.5629V2.93821Z" fill="white"/>
<path d="M51.4402 12.9316H55.7209V0.0830543L58.5746 0.083923V15.7869H51.4402V12.9316Z" fill="white"/>
<path d="M257.645 15.7868H256.155L261.817 0.212612H263.337L269 15.7868H267.51L262.631 2.06052H262.524L257.645 15.7868ZM258.716 9.81717H266.439V11.0947H258.716V9.81717Z" fill="url(#paint0_linear_9_2678)"/>
<path d="M242.778 0.212612V15.7868H241.357V0.212612H242.778Z" fill="url(#paint1_linear_9_2678)"/>
<path d="M219.854 15.7868H215.293V0.212612H220.127C221.612 0.212612 222.881 0.521864 223.935 1.14037C224.994 1.75887 225.805 2.64607 226.368 3.80196C226.93 4.95786 227.211 6.34442 227.211 7.96166C227.211 9.59411 226.922 10.9959 226.345 12.167C225.772 13.333 224.936 14.2278 223.837 14.8514C222.742 15.475 221.414 15.7868 219.854 15.7868ZM216.715 14.5092H219.77C221.108 14.5092 222.228 14.2456 223.13 13.7183C224.032 13.1911 224.708 12.4382 225.159 11.4598C225.61 10.4813 225.835 9.31527 225.835 7.96166C225.83 6.61819 225.607 5.4623 225.167 4.49398C224.731 3.52567 224.082 2.78295 223.221 2.26584C222.365 1.74873 221.306 1.49018 220.044 1.49018H216.715V14.5092Z" fill="url(#paint2_linear_9_2678)"/>
<path d="M191.883 15.7868V0.212612H200.913V1.49018H193.305V7.3533H200.434V8.63086H193.305V14.5092H201.065V15.7868H191.883Z" fill="url(#paint3_linear_9_2678)"/>
<path d="M162.331 0.212612H163.973L169.62 13.7792H169.757L175.404 0.212612H177.046V15.7868H175.708V3.21641H175.587L170.335 15.7868H169.043L163.791 3.21641H163.669V15.7868H162.331V0.212612Z" fill="url(#paint4_linear_9_2678)"/>
<path d="M137.807 15.7868V0.212612H148.295V2.92744H141.098V6.63847H147.756V9.3533H141.098V13.0719H148.326V15.7868H137.807Z" fill="url(#paint5_linear_9_2678)"/>
<path d="M121.146 5.24715C121.04 4.87706 120.89 4.55006 120.697 4.26616C120.505 3.97719 120.269 3.73384 119.991 3.53612C119.717 3.33333 119.403 3.17871 119.048 3.07224C118.699 2.96578 118.311 2.91255 117.885 2.91255C117.09 2.91255 116.39 3.11027 115.787 3.5057C115.19 3.90114 114.723 4.47655 114.389 5.23194C114.055 5.98226 113.887 6.89987 113.887 7.98479C113.887 9.06971 114.052 9.9924 114.381 10.7529C114.711 11.5133 115.177 12.0938 115.78 12.4943C116.383 12.8897 117.095 13.0875 117.916 13.0875C118.661 13.0875 119.296 12.9556 119.823 12.692C120.355 12.4233 120.761 12.0456 121.04 11.5589C121.323 11.0722 121.465 10.4968 121.465 9.8327L122.134 9.93156H118.121V7.45247H124.635V9.41445C124.635 10.7833 124.346 11.9594 123.768 12.943C123.19 13.9214 122.395 14.6768 121.382 15.2091C120.368 15.7364 119.208 16 117.9 16C116.441 16 115.159 15.6781 114.055 15.0342C112.95 14.3853 112.089 13.4651 111.47 12.2738C110.857 11.0773 110.551 9.65779 110.551 8.01521C110.551 6.75285 110.733 5.62738 111.098 4.63878C111.468 3.64512 111.985 2.80355 112.648 2.11407C113.312 1.42459 114.085 0.899873 114.967 0.539924C115.848 0.179974 116.803 0 117.832 0C118.714 0 119.535 0.129278 120.295 0.387833C121.055 0.641319 121.729 1.00127 122.316 1.46768C122.909 1.93409 123.393 2.48923 123.768 3.13308C124.143 3.77186 124.384 4.47655 124.49 5.24715H121.146Z" fill="url(#paint6_linear_9_2678)"/>
<path d="M90.0669 15.7868H84.5489V0.212612H90.1125C91.6783 0.212612 93.0261 0.524399 94.1561 1.14797C95.286 1.76648 96.1551 2.65621 96.7631 3.81717C97.3762 4.97814 97.6828 6.36724 97.6828 7.98448C97.6828 9.60678 97.3762 11.001 96.7631 12.167C96.1551 13.333 95.281 14.2278 94.1409 14.8514C93.0059 15.475 91.6479 15.7868 90.0669 15.7868ZM87.84 12.9655H89.9301C90.903 12.9655 91.7214 12.7931 92.3851 12.4484C93.054 12.0985 93.5556 11.5586 93.8901 10.8286C94.2296 10.0935 94.3993 9.14544 94.3993 7.98448C94.3993 6.83365 94.2296 5.89322 93.8901 5.16318C93.5556 4.43314 93.0565 3.89575 92.3927 3.55101C91.729 3.20627 90.9106 3.03391 89.9378 3.03391H87.84V12.9655Z" fill="url(#paint7_linear_9_2678)"/>
<path d="M24.848 15.7868V0.212612H30.9893C32.1649 0.212612 33.1681 0.423004 33.9991 0.84379C34.8352 1.25951 35.4711 1.85013 35.9069 2.61565C36.3477 3.37611 36.5681 4.27091 36.5681 5.30006C36.5681 6.33429 36.3452 7.22402 35.8993 7.96926C35.4534 8.70944 34.8073 9.27725 33.9611 9.67269C33.12 10.0681 32.1015 10.2658 30.9057 10.2658H26.7937V7.61946H30.3736C31.002 7.61946 31.5239 7.53327 31.9394 7.3609C32.3549 7.18853 32.664 6.92998 32.8666 6.58524C33.0744 6.2405 33.1783 5.81211 33.1783 5.30006C33.1783 4.78295 33.0744 4.34696 32.8666 3.99208C32.664 3.6372 32.3523 3.3685 31.9318 3.186C31.5163 2.99842 30.9918 2.90463 30.3584 2.90463H28.139V15.7868H24.848ZM33.2543 8.6993L37.123 15.7868H33.4899L29.7048 8.6993H33.2543Z" fill="url(#paint8_linear_9_2678)"/>
<path d="M0 15.7868V0.212612H6.23252C7.37768 0.212612 8.33282 0.382447 9.09795 0.722118C9.86308 1.06179 10.4382 1.53327 10.8233 2.13657C11.2084 2.73479 11.4009 3.42427 11.4009 4.20501C11.4009 4.81337 11.2793 5.34823 11.0361 5.80957C10.7929 6.26584 10.4585 6.641 10.0328 6.93505C9.61226 7.22402 9.13089 7.42934 8.58871 7.55101V7.70311C9.18156 7.72846 9.73641 7.89576 10.2533 8.20501C10.7752 8.51426 11.1983 8.94772 11.5226 9.50539C11.8468 10.058 12.009 10.717 12.009 11.4826C12.009 12.3089 11.8038 13.0466 11.3933 13.6955C10.988 14.3394 10.3875 14.8489 9.59199 15.224C8.79646 15.5992 7.81598 15.7868 6.65055 15.7868H0ZM3.29107 13.0947H5.97409C6.89124 13.0947 7.56009 12.9198 7.98066 12.57C8.40123 12.2151 8.61151 11.7437 8.61151 11.1556C8.61151 10.7247 8.50764 10.3444 8.29989 10.0149C8.09214 9.68536 7.79571 9.42681 7.41061 9.23923C7.03058 9.05165 6.57708 8.95786 6.0501 8.95786H3.29107V13.0947ZM3.29107 6.72972H5.73087C6.18185 6.72972 6.58215 6.65114 6.93177 6.49398C7.28647 6.33175 7.56516 6.10361 7.76784 5.80957C7.97559 5.51553 8.07947 5.16318 8.07947 4.75254C8.07947 4.1898 7.87932 3.73606 7.47902 3.39132C7.08379 3.04658 6.52134 2.87421 5.79168 2.87421H3.29107V6.72972Z" fill="url(#paint9_linear_9_2678)"/>
<defs>
<linearGradient id="paint0_linear_9_2678" x1="0.157567" y1="-0.380031" x2="103.244" y2="-123.119" gradientUnits="userSpaceOnUse">
<stop stop-color="#6CCAFF"/>
<stop offset="0.5" stop-color="#6D85FE"/>
<stop offset="1" stop-color="#9B49F0"/>
</linearGradient>
<linearGradient id="paint1_linear_9_2678" x1="0.157567" y1="-0.380031" x2="103.244" y2="-123.119" gradientUnits="userSpaceOnUse">
<stop stop-color="#6CCAFF"/>
<stop offset="0.5" stop-color="#6D85FE"/>
<stop offset="1" stop-color="#9B49F0"/>
</linearGradient>
<linearGradient id="paint2_linear_9_2678" x1="0.157567" y1="-0.380031" x2="103.244" y2="-123.119" gradientUnits="userSpaceOnUse">
<stop stop-color="#6CCAFF"/>
<stop offset="0.5" stop-color="#6D85FE"/>
<stop offset="1" stop-color="#9B49F0"/>
</linearGradient>
<linearGradient id="paint3_linear_9_2678" x1="0.157567" y1="-0.380031" x2="103.244" y2="-123.119" gradientUnits="userSpaceOnUse">
<stop stop-color="#6CCAFF"/>
<stop offset="0.5" stop-color="#6D85FE"/>
<stop offset="1" stop-color="#9B49F0"/>
</linearGradient>
<linearGradient id="paint4_linear_9_2678" x1="0.157567" y1="-0.380031" x2="103.244" y2="-123.119" gradientUnits="userSpaceOnUse">
<stop stop-color="#6CCAFF"/>
<stop offset="0.5" stop-color="#6D85FE"/>
<stop offset="1" stop-color="#9B49F0"/>
</linearGradient>
<linearGradient id="paint5_linear_9_2678" x1="0.157567" y1="-0.380031" x2="103.244" y2="-123.119" gradientUnits="userSpaceOnUse">
<stop stop-color="#6CCAFF"/>
<stop offset="0.5" stop-color="#6D85FE"/>
<stop offset="1" stop-color="#9B49F0"/>
</linearGradient>
<linearGradient id="paint6_linear_9_2678" x1="0.157567" y1="-0.380031" x2="103.244" y2="-123.119" gradientUnits="userSpaceOnUse">
<stop stop-color="#6CCAFF"/>
<stop offset="0.5" stop-color="#6D85FE"/>
<stop offset="1" stop-color="#9B49F0"/>
</linearGradient>
<linearGradient id="paint7_linear_9_2678" x1="0.157567" y1="-0.380031" x2="103.244" y2="-123.119" gradientUnits="userSpaceOnUse">
<stop stop-color="#6CCAFF"/>
<stop offset="0.5" stop-color="#6D85FE"/>
<stop offset="1" stop-color="#9B49F0"/>
</linearGradient>
<linearGradient id="paint8_linear_9_2678" x1="0.157567" y1="-0.380031" x2="103.244" y2="-123.119" gradientUnits="userSpaceOnUse">
<stop stop-color="#6CCAFF"/>
<stop offset="0.5" stop-color="#6D85FE"/>
<stop offset="1" stop-color="#9B49F0"/>
</linearGradient>
<linearGradient id="paint9_linear_9_2678" x1="0.157567" y1="-0.380031" x2="103.244" y2="-123.119" gradientUnits="userSpaceOnUse">
<stop stop-color="#6CCAFF"/>
<stop offset="0.5" stop-color="#6D85FE"/>
<stop offset="1" stop-color="#9B49F0"/>
</linearGradient>
</defs>
</svg>
