<svg width="261" height="29" viewBox="0 0 261 29" fill="none" xmlns="http://www.w3.org/2000/svg">
<path d="M61.2784 26.3444C62.9625 24.7741 63.9747 22.6137 64.1033 20.3147C64.1378 19.1468 63.9379 17.9839 63.5131 16.8955C63.0882 15.807 62.4483 14.8154 61.6317 13.9797C60.8151 13.1441 59.8384 12.4816 58.7601 12.0318C57.6817 11.582 56.5238 11.3541 55.3554 11.3617C54.5765 11.3589 53.801 11.4646 53.0513 11.6757C52.631 9.72069 51.8096 7.87418 50.639 6.25294C49.4684 4.63171 47.9741 3.27104 46.2507 2.257C44.0419 0.940651 41.5179 0.247103 38.9467 0.250009C34.7381 0.250009 32.7402 1.63557 32.7402 1.63557C32.3716 1.79507 32.0597 2.06228 31.8455 2.40214C31.6314 2.742 31.525 3.13865 31.5402 3.54007V26.9298C31.5429 27.408 31.7335 27.8659 32.0709 28.2047C32.4083 28.5436 32.8654 28.7362 33.3435 28.7409H55.0661C57.3684 28.7733 59.5943 27.9146 61.2784 26.3444Z" fill="#FF5500"/>
<path d="M28.8288 28.0948C29.9601 20.1875 29.4839 12.9523 28.8288 5.01904C28.8599 4.75049 28.7315 4.48713 28.5031 4.34442C28.391 4.2728 28.2608 4.23448 28.1277 4.23391C27.9947 4.23333 27.8642 4.27053 27.7514 4.34119C27.6386 4.41184 27.5482 4.51304 27.4907 4.63303C27.4332 4.75302 27.4108 4.88687 27.4264 5.01904C26.8296 12.8835 26.3716 20.255 27.4264 28.0948C27.446 28.2671 27.5283 28.426 27.6576 28.5415C27.787 28.6569 27.9542 28.7207 28.1276 28.7207C28.3009 28.7207 28.4682 28.6569 28.5975 28.5415C28.7268 28.426 28.8091 28.2671 28.8288 28.0948Z" fill="#FF5500"/>
<path d="M24.1855 28.5572C24.3198 28.4404 24.4074 28.2789 24.4321 28.1026C25.3104 21.3435 25.3143 14.5 24.4412 7.74086C24.4224 7.55882 24.3369 7.39019 24.201 7.2676C24.0651 7.145 23.8886 7.07714 23.7056 7.07714C23.5226 7.07714 23.3461 7.145 23.2102 7.2676C23.0744 7.39019 22.9888 7.55882 22.97 7.74086C22.1838 14.5053 22.1838 21.3381 22.97 28.1026C22.9947 28.2789 23.0823 28.4404 23.2166 28.5572C23.351 28.6741 23.523 28.7384 23.7011 28.7384C23.8791 28.7384 24.0511 28.6741 24.1855 28.5572Z" fill="#FF5500"/>
<path d="M20.0212 28.0858C21.0668 20.8336 20.7425 14.321 20.029 7.05197C19.99 6.68871 19.6826 6.41627 19.3193 6.41627C18.9548 6.41627 18.6486 6.68871 18.6097 7.05197C17.9377 14.2276 17.5978 20.927 18.6097 28.0858C18.6206 28.2655 18.6997 28.4344 18.8308 28.5578C18.962 28.6813 19.1353 28.75 19.3154 28.75C19.4955 28.75 19.6689 28.6813 19.8 28.5578C19.9312 28.4344 20.0103 28.2655 20.0212 28.0858Z" fill="#FF5500"/>
<path d="M15.3767 28.5609C15.5088 28.4453 15.5946 28.2857 15.618 28.1117C16.4978 21.8058 16.5052 15.4088 15.6427 9.10047C15.6427 8.90658 15.5657 8.72064 15.4286 8.58354C15.2915 8.44644 15.1055 8.36942 14.9116 8.36942C14.7177 8.36942 14.5318 8.44644 14.3947 8.58354C14.2576 8.72064 14.1806 8.90658 14.1806 9.10047C13.3684 15.4115 13.3684 21.8006 14.1806 28.1117C14.204 28.2857 14.2898 28.4453 14.4219 28.5609C14.5541 28.6764 14.7237 28.7401 14.8993 28.7401C15.0749 28.7401 15.2445 28.6764 15.3767 28.5609Z" fill="#FF5500"/>
<path d="M11.1708 28.1623C11.8246 23.1377 12.3267 18.7838 11.2123 13.8539C11.2014 13.6698 11.1206 13.4967 10.9864 13.3701C10.8522 13.2434 10.6748 13.1728 10.4903 13.1727C10.3058 13.1725 10.1282 13.2428 9.99377 13.3692C9.85935 13.4955 9.77826 13.6685 9.76705 13.8526C8.7214 18.7501 9.21439 23.2065 9.80857 28.1623C9.83504 28.3239 9.91807 28.4707 10.0428 28.5767C10.1676 28.6827 10.326 28.7409 10.4897 28.7409C10.6534 28.7409 10.8117 28.6827 10.9365 28.5767C11.0613 28.4707 11.1443 28.3239 11.1708 28.1623Z" fill="#FF5500"/>
<path d="M6.79097 27.4994C7.5045 22.4319 7.83792 18.1559 6.81692 13.1054C6.79416 12.9241 6.70601 12.7573 6.56901 12.6365C6.43201 12.5156 6.2556 12.4489 6.0729 12.4489C5.89019 12.4489 5.71378 12.5156 5.57678 12.6365C5.43978 12.7573 5.35163 12.9241 5.32887 13.1054C4.40258 18.104 4.70875 22.5085 5.35482 27.4994C5.42358 28.2557 6.70664 28.2479 6.79097 27.4994Z" fill="#FF5500"/>
<path d="M2.33722 25.0591C3.08449 21.625 3.45033 18.9032 2.38003 15.5534H2.37874C2.36315 15.367 2.27807 15.1932 2.14039 15.0666C2.0027 14.9399 1.82245 14.8696 1.63536 14.8696C1.44828 14.8696 1.26803 14.9399 1.13034 15.0666C0.992654 15.1932 0.907582 15.367 0.891992 15.5534C0.0409411 18.9123 0.3043 21.6925 0.949075 25.0591C0.96411 25.2328 1.04374 25.3946 1.17225 25.5124C1.30075 25.6303 1.46878 25.6957 1.64315 25.6957C1.81752 25.6957 1.98555 25.6303 2.11405 25.5124C2.24255 25.3946 2.32219 25.2328 2.33722 25.0591Z" fill="#FF5500"/>
<path d="M143.765 16.9462V4.60823H147.594V23.9661H144.191L137.171 13.3299C136.746 12.6918 136.107 11.6281 135.895 11.2027V23.9661H132.066V4.60823H135.682L142.489 14.819C142.915 15.4572 143.553 16.5208 143.765 16.9462Z" fill="#FF5500"/>
<path fill-rule="evenodd" clip-rule="evenodd" d="M158.443 23.9661H152.7V4.82096H158.869C164.4 4.82096 168.441 7.37365 168.441 14.3936C168.441 21.2007 163.336 23.9661 158.443 23.9661ZM158.656 8.43727H156.529V20.3498H158.443C162.485 20.3498 164.4 18.0099 164.4 14.3936C164.4 10.3518 162.698 8.43727 158.656 8.43727Z" fill="#FF5500"/>
<path d="M190.777 23.9661V4.60823H194.819V20.1371H202.477V23.9661H190.777Z" fill="#FF5500"/>
<path fill-rule="evenodd" clip-rule="evenodd" d="M250.978 23.9661H245.235V4.82096H251.404C256.296 4.82096 259.912 6.73547 260.763 11.8409V16.7335C259.7 21.8389 255.233 23.9661 250.978 23.9661ZM251.191 8.43727H249.064V20.3498H250.978C255.02 20.3498 256.934 18.0099 256.934 14.3936C256.934 10.3518 255.233 8.43727 251.191 8.43727Z" fill="#FF5500"/>
<path d="M79.523 15.8826C76.1194 15.0317 73.5667 13.9681 73.5667 10.1391C73.5667 6.73547 76.3321 4.60823 79.9484 4.60823H80.5866C83.5647 4.60823 85.6919 5.67185 87.6065 7.58637L84.8411 10.3518C83.5647 9.07544 82.0757 8.43727 80.3739 8.43727C78.2466 8.43727 77.6085 9.28817 77.6085 10.1391C77.6085 11.4154 78.4594 11.8409 81.4375 12.479C84.4156 13.1172 87.8192 14.1808 87.8192 18.4353C87.8192 22.0516 85.4792 24.6043 80.1611 24.6043C76.9703 24.6043 74.2049 23.1152 72.7158 20.988L75.4812 18.4353C76.7576 19.9244 78.4594 20.5626 80.3739 20.5626C82.7138 20.5626 83.7774 19.9244 83.7774 18.4353C83.7774 17.159 83.1393 16.7335 79.523 15.8826Z" fill="#FF5500"/>
<path fill-rule="evenodd" clip-rule="evenodd" d="M99.0935 24.3916C93.9882 24.3916 90.7973 20.3498 90.7973 14.3936C90.7973 8.43727 93.9882 4.39551 99.0935 4.39551C104.412 4.39551 107.602 8.43727 107.602 14.3936C107.602 20.3498 104.412 24.3916 99.0935 24.3916ZM99.3062 8.22455C96.1154 8.22455 94.8391 10.99 94.8391 14.3936C94.8391 17.7971 96.1154 20.5626 99.3062 20.5626C102.497 20.5626 103.773 17.7971 103.773 14.3936C103.773 10.99 102.497 8.22455 99.3062 8.22455Z" fill="#FF5500"/>
<path d="M123.344 15.4572V4.39551H127.173V15.2444C127.173 20.988 124.195 24.1789 119.302 24.1789C114.622 24.1789 111.431 20.988 111.431 15.4572V4.60823H115.261V15.4572C115.261 18.648 116.75 20.5626 119.302 20.5626C121.855 20.5626 123.344 18.648 123.344 15.4572Z" fill="#FF5500"/>
<path d="M180.141 24.3916C175.036 24.3916 171.632 20.5626 171.632 14.3936C171.632 8.43727 175.249 4.39551 180.354 4.39551C183.97 4.39551 186.097 6.0973 187.374 8.64999L183.757 10.3518C182.907 9.07544 181.843 8.22455 180.141 8.22455C177.376 8.22455 175.674 10.7772 175.674 14.3936C175.674 18.0099 177.376 20.5626 180.354 20.5626C182.056 20.5626 183.119 19.7117 184.183 18.0099L187.374 19.9244C185.885 22.6898 183.757 24.3916 180.141 24.3916Z" fill="#FF5500"/>
<path fill-rule="evenodd" clip-rule="evenodd" d="M212.475 24.3916C207.37 24.3916 204.179 20.3498 204.179 14.3936C204.179 8.43727 207.37 4.39551 212.475 4.39551C217.58 4.39551 220.771 8.43727 220.771 14.3936C220.771 20.3498 217.793 24.3916 212.475 24.3916ZM212.688 8.22455C209.497 8.22455 208.221 10.99 208.221 14.3936C208.221 17.7971 209.497 20.5626 212.688 20.5626C215.879 20.5626 217.155 17.7971 217.155 14.3936C217.155 10.99 215.879 8.22455 212.688 8.22455Z" fill="#FF5500"/>
<path d="M236.513 15.4572V4.39551H240.342V15.2444C240.342 20.988 237.364 24.1789 232.471 24.1789C227.791 24.1789 224.6 20.988 224.6 15.4572V4.60823H228.429V15.4572C228.429 18.648 229.918 20.5626 232.471 20.5626C235.024 20.5626 236.513 18.648 236.513 15.4572Z" fill="#FF5500"/>
</svg>
