<svg width="165" height="40" viewBox="0 0 165 40" fill="none" xmlns="http://www.w3.org/2000/svg">
<path d="M24.2566 12.8082V26.1987C24.2566 32.8869 18.8153 38.3291 12.128 38.3354C9.63973 38.3374 7.2118 37.5695 5.17724 36.1371C3.08292 33.8975 1.91847 30.9453 1.91992 27.879C1.91992 21.287 7.20639 15.9106 13.762 15.7575V20.9194C13.2335 20.7514 12.6825 20.665 12.128 20.6631C10.8893 20.6625 9.6862 21.0774 8.71111 21.8413C7.73602 22.6052 7.04526 23.674 6.7493 24.8768C6.45334 26.0796 6.56927 27.3469 7.07857 28.476C7.58786 29.6052 8.46109 30.5309 9.5586 31.1052C10.2308 32.043 11.1797 32.747 12.2721 33.1185C13.3646 33.4899 14.5459 33.5103 15.6505 33.1767C16.7551 32.843 17.7276 32.1722 18.4317 31.2581C19.1359 30.3439 19.5364 29.2324 19.5771 28.0793L19.5878 1.67188H24.4114C24.64 2.89352 25.1141 4.05607 25.8051 5.08912C26.4961 6.12217 27.3896 7.00423 28.4315 7.68189C29.7322 9.18023 31.4838 10.2164 33.4233 10.6348V15.7558C30.1341 15.7597 26.927 14.7285 24.2566 12.8082Z" fill="white"/>
<path d="M62.4584 10.6562H41.8652L41.8706 16.5568L48.5668 16.5443V38.323H55.2274V16.547H60.5672L62.4584 10.6562Z" fill="white"/>
<path d="M96.1826 10.6562H117.247L115.357 16.547H109.55V38.323H102.884V16.5443L96.1871 16.5568L96.1826 10.6562Z" fill="white"/>
<path d="M70.3119 19.457H63.7109L63.7501 38.3236H70.3048L70.3119 19.457Z" fill="white"/>
<path d="M72.9293 10.5791H79.5232V23.4669L86.0583 17.059H93.9292L85.6631 25.0688L94.9189 38.3197H87.654L81.4776 29.1342L79.5196 31.0343V38.3232H72.9258L72.9293 10.5791Z" fill="white"/>
<path d="M149.389 10.5791H142.795L142.789 38.3197H149.383V31.0308L151.341 29.1307L157.52 38.3197H164.785L155.529 25.0688L163.795 17.059H155.923L149.389 23.4669V10.5791Z" fill="white"/>
<path d="M67.0087 17.3006C68.8441 17.3006 70.3319 15.8128 70.3319 13.9775C70.3319 12.1421 68.8441 10.6543 67.0087 10.6543C65.1734 10.6543 63.6855 12.1421 63.6855 13.9775C63.6855 15.8128 65.1734 17.3006 67.0087 17.3006Z" fill="white"/>
<path fill-rule="evenodd" clip-rule="evenodd" d="M121.319 17.6389C123.176 16.3978 125.36 15.7354 127.594 15.7354C130.589 15.7351 133.461 16.9246 135.579 19.042C137.697 21.1595 138.887 24.0316 138.887 27.0265C138.888 29.2603 138.226 31.4441 136.985 33.3017C135.745 35.1593 133.981 36.6073 131.917 37.4625C129.854 38.3177 127.583 38.5417 125.392 38.1063C123.201 37.6708 121.188 36.5954 119.609 35.016C118.029 33.4367 116.953 31.4243 116.517 29.2334C116.081 27.0426 116.305 24.7716 117.159 22.7078C118.014 20.644 119.462 18.88 121.319 17.6389ZM124.544 31.5943C125.446 32.1975 126.508 32.5194 127.594 32.5194C128.315 32.5194 129.029 32.3773 129.695 32.1012C130.362 31.8252 130.967 31.4205 131.477 30.9104C131.987 30.4003 132.391 29.7948 132.667 29.1283C132.942 28.4619 133.084 27.7477 133.084 27.0265C133.083 25.9407 132.761 24.8795 132.157 23.977C131.554 23.0745 130.696 22.3712 129.693 21.956C128.69 21.5409 127.586 21.4326 126.521 21.6447C125.456 21.8569 124.478 22.38 123.71 23.1479C122.943 23.9158 122.42 24.8941 122.209 25.959C121.997 27.024 122.106 28.1277 122.522 29.1308C122.937 30.1339 123.641 30.9912 124.544 31.5943Z" fill="white"/>
<path d="M14.0494 33.4106C15.4811 33.4082 16.8563 32.8518 17.8869 31.8581C18.9174 30.8643 19.5226 29.5099 19.5771 28.0793L19.5878 1.67188H24.4114C24.3088 1.12037 24.2578 0.560986 24.2575 0H17.6716L17.6574 26.4038C17.6243 27.3387 17.3545 28.2498 16.8733 29.0519C16.392 29.854 15.7151 30.5209 14.9058 30.99C14.0965 31.4591 13.1814 31.7151 12.2462 31.7341C11.311 31.7531 10.3862 31.5344 9.55859 31.0985C10.0696 31.8129 10.7435 32.3953 11.5245 32.7974C12.3055 33.1995 13.171 33.4097 14.0494 33.4106Z" fill="#25F4EE"/>
<path d="M13.7626 15.7497V14.1887C13.2212 14.1127 12.6753 14.0732 12.1286 14.0703C5.44043 14.0703 0 19.5116 0 26.1989C0.000773537 28.1486 0.471848 30.0692 1.37325 31.798C2.27465 33.5267 3.57978 35.0125 5.17789 36.1293C3.08356 33.8896 1.91912 30.9375 1.92057 27.8712C1.92057 21.2791 7.20704 15.9019 13.7626 15.7497Z" fill="#25F4EE"/>
<path d="M33.4233 10.6348L33.4235 9.1671C31.6505 9.16894 29.9154 8.65227 28.4315 7.68189C29.7322 9.18023 31.4838 10.2164 33.4233 10.6348Z" fill="#25F4EE"/>
<path d="M119.407 19.3608C117.477 21.4473 116.405 24.1849 116.404 27.0272C116.405 29.8694 117.477 32.6069 119.407 34.6933C121.337 36.7797 123.983 38.0614 126.817 38.2827C126.525 38.3059 126.125 38.321 125.828 38.321C122.833 38.321 119.96 37.1311 117.842 35.0131C115.724 32.8951 114.534 30.0225 114.534 27.0272C114.534 24.0319 115.724 21.1593 117.842 19.0413C119.96 16.9233 122.833 15.7334 125.828 15.7334C126.125 15.7334 126.525 15.7485 126.817 15.7708C123.983 15.9923 121.337 17.2743 119.407 19.3608Z" fill="#25F4EE"/>
<path d="M28.4315 7.68189C26.9767 6.01781 26.1763 3.88216 26.1778 1.67188H24.4114C24.64 2.89352 25.1141 4.05607 25.8051 5.08912C26.4961 6.12217 27.3896 7.00423 28.4315 7.68189Z" fill="#FE2C55"/>
<path d="M12.1289 20.6603C10.8902 20.6597 9.68711 21.0746 8.71202 21.8385C7.73693 22.6024 7.04617 23.6712 6.75021 24.874C6.45425 26.0768 6.57018 27.3441 7.07948 28.4732C7.58877 29.6024 8.462 30.5281 9.55951 31.1024C8.87376 30.1631 8.50232 29.0312 8.49822 27.8682C8.49412 26.7053 8.85757 25.5708 9.53667 24.6267C10.2158 23.6826 11.1758 22.9772 12.2797 22.6112C13.3836 22.2453 14.5749 22.2374 15.6834 22.5889V15.8615C15.1421 15.7851 14.5962 15.7455 14.0494 15.7432C13.992 15.7432 13.9351 15.7451 13.8782 15.747C13.8399 15.7483 13.8012 15.749 13.7626 15.7497L13.7629 20.9121C13.2342 20.7456 12.6832 20.6607 12.1289 20.6603Z" fill="#FE2C55"/>
<path d="M33.4233 10.6348V15.7558C30.1341 15.7597 26.927 14.7285 24.2566 12.8082V26.1987C24.2566 32.8869 18.8157 38.3273 12.1285 38.3273C9.64022 38.3293 7.21245 37.5617 5.17789 36.1293C6.31041 37.3505 7.68279 38.3244 9.20933 38.9904C10.7359 39.6564 12.3835 40 14.049 39.9995C20.7363 39.9995 26.1776 34.5582 26.1776 27.8709V14.4777C28.8482 16.3978 32.0552 17.4291 35.3444 17.4253V10.8395C34.6988 10.839 34.0546 10.7705 33.4233 10.6348Z" fill="#FE2C55"/>
<path d="M128.381 15.7736C128.675 15.7505 129.077 15.7354 129.378 15.7354C132.373 15.7354 135.246 16.9252 137.364 19.0432C139.482 21.1612 140.671 24.0339 140.671 27.0292C140.671 30.0245 139.482 32.8971 137.364 35.0151C135.246 37.1331 132.373 38.323 129.378 38.323C129.077 38.323 128.675 38.3078 128.381 38.2847C131.213 38.0621 133.858 36.7797 135.787 34.6934C137.715 32.6071 138.786 29.8704 138.786 27.0292C138.786 24.1879 137.715 21.4512 135.787 19.3649C133.858 17.2786 131.213 15.9962 128.381 15.7736Z" fill="#FE2C55"/>
</svg>
