<svg width="170" height="49" viewBox="0 0 170 49" fill="none" xmlns="http://www.w3.org/2000/svg">
<path d="M53.9168 4.73655C53.8598 6.15031 53.1503 7.50699 51.7863 8.80637C50.253 10.275 48.4358 11.0095 46.335 11.0095C43.0989 11.0095 41.5359 9.59795 41.6505 6.7727C41.7051 5.30411 42.5714 3.89035 44.2465 2.53368C45.9219 1.17947 47.7812 0.5 49.8272 0.5C51.0195 0.5 52.0128 0.967965 52.8093 1.89897C53.6033 2.83224 53.9717 3.77823 53.9168 4.73655Z" fill="#17B7EA"/>
<path fill-rule="evenodd" clip-rule="evenodd" d="M55.7484 42.3027C55.4304 42.6049 55.1037 42.903 54.7684 43.197C50.9623 46.4877 47.159 48.1331 43.3556 48.1331C41.5932 48.1331 40.2441 47.5657 39.3082 46.4302C38.3723 45.2953 37.9316 43.8218 37.9889 42.0046C38.0435 40.1329 38.6261 37.238 39.7337 33.3222C40.8415 29.4068 41.3965 27.3062 41.3965 27.0222C41.3965 25.5485 40.8838 24.8093 39.8632 24.8093C39.5415 24.8093 38.6637 25.3411 37.2299 26.4005C36.1493 29.6259 33.7972 33.5708 30.1735 38.2345C25.0159 44.9401 20.6525 48.2933 17.0832 48.2933C14.8727 48.2933 13.0009 46.252 11.4726 42.1672L8.41081 30.9362C7.27571 26.8536 6.05848 24.8101 4.75686 24.8101C4.47308 24.8101 3.47987 25.4076 1.77969 26.5976L-0.00488281 24.2974C1.86696 22.652 3.71375 21.0066 5.53097 19.3588C8.02744 17.2006 9.90195 16.0657 11.1514 15.9512C14.1035 15.6674 15.9208 17.6861 16.6027 22.0074C17.3394 26.6696 17.8497 29.5694 18.1359 30.7046C18.9872 34.5725 19.9232 36.5046 20.9464 36.5046C21.7402 36.5046 22.9326 35.2497 24.5233 32.7409C26.1112 30.2317 26.9625 28.3226 27.0769 27.0107C27.3036 24.845 26.4522 23.7596 24.5233 23.7596C23.6145 23.7596 22.6786 23.9688 21.7155 24.382C23.5798 18.2735 27.1418 15.3064 32.3988 15.4756C35.9098 15.5788 37.7488 17.6409 37.9156 21.6622C38.763 20.8945 39.6105 20.1265 40.4581 19.3579C42.8999 17.1998 44.717 16.0649 45.9118 15.9503C47.7839 15.7811 49.1602 16.3312 50.0413 17.6058C50.92 18.8801 51.2462 20.5329 51.0222 22.5692C50.2828 26.0218 49.4863 30.405 48.635 35.7218C48.5777 38.1563 49.4588 39.3709 51.276 39.3709C52.07 39.3709 53.4887 38.5323 55.5349 36.8497L55.6084 36.7892C55.739 35.603 55.9487 34.1933 56.2388 32.5608C56.7067 29.9271 56.9681 27.8762 57.0229 26.4027C57.1349 25.3846 56.8786 24.8742 56.2562 24.8742C55.9152 24.8742 54.9495 25.4491 53.3589 26.597L51.3154 24.2967C51.599 24.0727 53.3862 22.4249 56.6819 19.3581C59.0662 17.1454 60.6843 16.0103 61.5356 15.953C63.0118 15.8386 64.2042 16.4483 65.1126 17.7826C66.0212 19.1169 66.4766 20.6649 66.4766 22.4249C66.4766 22.9924 66.4193 23.5325 66.3074 24.0429C67.1587 22.7386 68.1519 21.6011 69.2893 20.6351C71.9006 18.3651 74.8254 17.0854 78.0615 16.8017C80.8442 16.5754 82.8306 17.2275 84.0257 18.7608C84.9887 20.0103 85.4419 21.8002 85.387 24.1275C85.7856 23.7891 86.211 23.4181 86.6667 23.0199C87.971 21.4865 89.248 20.267 90.4974 19.3581C92.598 17.8249 94.7861 16.9735 97.0561 16.8017C99.7817 16.5754 101.741 17.2251 102.933 18.7532C103.953 19.998 104.409 21.7803 104.297 24.0976C104.24 25.6832 103.857 27.9885 103.147 31.0152C102.435 34.0419 102.082 35.7795 102.082 36.2325C102.025 37.4222 102.139 38.2413 102.423 38.6943C102.707 39.1473 103.386 39.3711 104.467 39.3711C104.952 39.3711 105.67 39.0579 106.623 38.4303C106.533 37.7152 106.496 36.9717 106.511 36.1998C106.566 31.6025 108.612 27.2314 112.644 23.0842C117.073 18.5442 122.297 16.2715 128.316 16.2715C133.882 16.2715 136.834 18.539 137.175 23.0694C137.401 25.9567 135.811 28.9312 132.406 31.9908C128.769 35.3339 124.197 37.4569 118.691 38.3629C119.711 39.7791 121.244 40.4863 123.29 40.4863C127.378 40.4863 131.836 39.4483 136.664 37.3672C136.878 37.2771 137.089 37.1867 137.297 37.0961C137.259 36.7495 137.23 36.3962 137.212 36.0363C136.925 31.1597 138.685 26.6792 142.493 22.5968C146.581 18.0615 151.718 15.7939 157.909 15.7939C161.882 15.7939 164.89 17.1282 166.937 19.7917C168.867 22.2311 169.746 25.3773 169.578 29.2307C169.35 34.448 167.42 38.956 163.785 42.7541C160.151 46.5529 155.636 48.4521 150.242 48.4521C145.757 48.4521 142.349 47.0059 140.022 44.1135C139.498 43.4508 139.046 42.737 138.667 41.9721C138.058 42.3497 137.419 42.7273 136.749 43.105C130.73 46.5647 124.625 48.2925 118.437 48.2925C113.837 48.2925 110.541 46.759 108.555 43.6949C108.409 43.4794 108.271 43.2597 108.141 43.0359C108.081 43.0898 108.02 43.1435 107.959 43.1972C104.153 46.4879 100.349 48.1333 96.546 48.1333C92.852 48.1333 91.065 46.092 91.1791 42.0048C91.234 40.1877 91.59 38.0048 92.242 35.4508C92.8943 32.897 93.2504 30.9105 93.3074 29.4918C93.3649 27.336 92.7099 26.2559 91.3409 26.2559C89.8601 26.2559 88.0952 28.0181 86.0443 31.5376C83.8788 35.2292 82.7088 38.8062 82.5394 42.2686C82.425 44.713 82.6639 46.5875 83.2565 47.8918C79.2937 48.0064 76.5177 47.3518 74.9348 45.9329C73.5161 44.6832 72.8663 42.6124 72.9808 39.7148C73.0355 37.8978 73.3143 36.0807 73.8172 34.2637C74.3176 32.4466 74.5962 30.8286 74.6535 29.407C74.7681 27.3064 73.9989 26.2559 72.3511 26.2559C70.9273 26.2559 69.3916 27.8762 67.7437 31.1121C66.0959 34.3481 65.1849 37.7284 65.0154 41.2483C64.9011 44.4294 65.105 46.6423 65.6255 47.8918C61.7274 48.0064 58.9593 47.1846 57.3215 45.4274C56.5734 44.6176 56.0493 43.5762 55.7484 42.3027ZM127.124 26.0464C127.178 24.523 126.556 23.7588 125.252 23.7588C123.549 23.7588 121.822 24.9314 120.064 27.2762C118.307 29.6208 117.399 31.8662 117.344 34.0117C117.311 34.0117 117.311 34.3801 117.344 35.1144C120.121 34.0988 122.531 32.5458 124.573 30.4547C126.215 28.6477 127.066 27.1766 127.124 26.0464ZM159.313 24.6853C159.796 25.9648 160.009 27.3738 159.952 28.9096C159.839 31.6402 159.015 34.2564 157.483 36.7603C155.666 39.7773 153.478 41.2831 150.924 41.2831C149.787 41.2831 148.906 40.6584 148.283 39.4063C147.716 38.3262 147.46 37.074 147.517 35.6502C147.629 32.7502 148.48 30.0198 150.073 27.4584C151.945 24.3295 154.33 22.7636 157.227 22.7636C158.133 22.7636 158.829 23.4059 159.313 24.6853Z" fill="#17B7EA"/>
</svg>
