<svg width="177" height="40" viewBox="0 0 177 40" fill="none" xmlns="http://www.w3.org/2000/svg">
<path d="M55.2236 6.61062C54.575 4.18397 52.6642 2.2731 50.2375 1.62454C45.8387 0.445801 28.2022 0.445801 28.2022 0.445801C28.2022 0.445801 10.5657 0.445801 6.16691 1.62454C3.74073 2.2731 1.8294 4.18397 1.18084 6.61062C0.00256348 11.0089 0.00256348 20.1858 0.00256348 20.1858C0.00256348 20.1858 0.00256348 29.3627 1.18084 33.7606C1.8294 36.1872 3.74073 38.0986 6.16691 38.7471C10.5657 39.9254 28.2022 39.9254 28.2022 39.9254C28.2022 39.9254 45.8387 39.9254 50.2375 38.7471C52.6642 38.0986 54.575 36.1872 55.2236 33.7606C56.4023 29.3627 56.4023 20.1858 56.4023 20.1858C56.4023 20.1858 56.4023 11.0089 55.2236 6.61062Z" fill="#ED1F24"/>
<path d="M22.5621 28.6457L37.2149 20.1857L22.5621 11.7256V28.6457Z" fill="white"/>
<path d="M88.1183 32.49C88.4271 31.684 88.5821 30.3665 88.5821 28.5378V20.834C88.5821 19.0596 88.4271 17.7625 88.1183 16.9421C87.8091 16.1223 87.2646 15.7119 86.4851 15.7119C85.7321 15.7119 85.2005 16.1223 84.8918 16.9421C84.5826 17.7625 84.428 19.0596 84.428 20.834V28.5378C84.428 30.3665 84.5756 31.684 84.8718 32.49C85.1671 33.2968 85.7047 33.6998 86.4851 33.6998C87.2646 33.6998 87.8091 33.2968 88.1183 32.49ZM81.8672 36.3623C80.7506 35.6102 79.9572 34.4398 79.4874 32.853C79.0167 31.2671 78.7817 29.1562 78.7817 26.5211V22.9314C78.7817 20.2694 79.0501 18.1315 79.5881 16.5187C80.1258 14.9054 80.9656 13.729 82.109 12.9895C83.2516 12.2504 84.7506 11.8804 86.6063 11.8804C88.4345 11.8804 89.8997 12.2569 91.0023 13.0099C92.1044 13.7625 92.9113 14.9393 93.4224 16.5387C93.9326 18.139 94.1884 20.2694 94.1884 22.9314V26.5211C94.1884 29.1562 93.9396 31.2741 93.4424 32.8734C92.9447 34.4737 92.1378 35.6432 91.0222 36.3822C89.9062 37.1218 88.3941 37.4914 86.4851 37.4914C84.5218 37.4914 82.9823 37.1148 81.8672 36.3623Z" fill="white"/>
<path d="M168.237 16.1737C167.955 16.5238 167.766 17.0948 167.672 17.8878C167.577 18.6812 167.531 19.8845 167.531 21.4978V23.2726H171.604V21.4978C171.604 19.9114 171.55 18.7081 171.443 17.8878C171.335 17.0679 171.141 16.4904 170.859 16.1538C170.576 15.8177 170.139 15.6496 169.548 15.6496C168.956 15.6496 168.519 15.8246 168.237 16.1737ZM167.531 26.58V27.8302C167.531 29.417 167.577 30.6064 167.672 31.3994C167.766 32.1928 167.96 32.7712 168.257 33.1343C168.553 33.4969 169.009 33.6789 169.628 33.6789C170.461 33.6789 171.033 33.3557 171.342 32.7104C171.651 32.0651 171.819 30.9899 171.846 29.4839L176.646 29.7661C176.673 29.982 176.686 30.2773 176.686 30.6533C176.686 32.9393 176.062 34.6468 174.811 35.7759C173.561 36.905 171.792 37.47 169.507 37.47C166.765 37.47 164.842 36.6097 163.74 34.8882C162.637 33.1682 162.086 30.5062 162.086 26.9026V22.5865C162.086 18.8762 162.657 16.1677 163.8 14.4597C164.943 12.7522 166.899 11.8984 169.669 11.8984C171.577 11.8984 173.043 12.248 174.065 12.9472C175.086 13.6468 175.806 14.7355 176.223 16.2141C176.64 17.6932 176.848 19.7369 176.848 22.3446V26.58H167.531Z" fill="white"/>
<path d="M68.3136 26.1167L61.9812 3.24805H67.5067L69.7249 13.6134C70.2899 16.1687 70.7064 18.3465 70.9752 20.1473H71.1367C71.3248 18.8567 71.7417 16.6928 72.387 13.6538L74.6859 3.24805H80.2115L73.7988 26.1167V37.0879H68.3136V26.1167Z" fill="white"/>
<path d="M112.16 12.3643V37.088H107.804L107.319 34.0634H107.199C106.015 36.349 104.24 37.4915 101.875 37.4915C100.234 37.4915 99.0246 36.9539 98.2447 35.8782C97.4647 34.803 97.0752 33.1219 97.0752 30.8369V12.3643H102.641V30.5138C102.641 31.6168 102.762 32.4033 103.004 32.8731C103.246 33.3443 103.649 33.5792 104.214 33.5792C104.698 33.5792 105.162 33.4316 105.605 33.1354C106.049 32.8397 106.378 32.4636 106.594 32.0063V12.3643H112.16Z" fill="white"/>
<path d="M140.71 12.3643V37.088H136.353L135.869 34.0634H135.749C134.565 36.349 132.79 37.4915 130.424 37.4915C128.784 37.4915 127.574 36.9539 126.794 35.8782C126.015 34.803 125.625 33.1219 125.625 30.8369V12.3643H131.191V30.5138C131.191 31.6168 131.312 32.4033 131.554 32.8731C131.796 33.3443 132.199 33.5792 132.764 33.5792C133.248 33.5792 133.712 33.4316 134.155 33.1354C134.599 32.8397 134.928 32.4636 135.144 32.0063V12.3643H140.71Z" fill="white"/>
<path d="M127.284 7.72579H121.758V37.0879H116.314V7.72579H110.788V3.24854H127.284V7.72579Z" fill="white"/>
<path d="M154.029 26.401C154.029 28.2028 153.954 29.6146 153.806 30.636C153.659 31.6582 153.41 32.3843 153.06 32.8138C152.711 33.2441 152.24 33.4591 151.649 33.4591C151.191 33.4591 150.768 33.3518 150.378 33.1364C149.988 32.9215 149.673 32.5988 149.43 32.1685V18.1327C149.618 17.4609 149.941 16.9094 150.398 16.479C150.856 16.0496 151.352 15.8337 151.89 15.8337C152.455 15.8337 152.892 16.0556 153.202 16.499C153.51 16.9428 153.726 17.6889 153.847 18.7381C153.968 19.7864 154.029 21.2785 154.029 23.2144V26.401ZM159.13 16.3161C158.794 14.7571 158.249 13.6276 157.497 12.928C156.744 12.2293 155.708 11.8797 154.391 11.8797C153.37 11.8797 152.415 12.1689 151.528 12.7469C150.641 13.3249 149.955 14.0844 149.471 15.0254H149.43L149.43 1.99805H144.066V37.0872H148.664L149.229 34.7483H149.35C149.78 35.5816 150.425 36.2404 151.286 36.7246C152.146 37.2084 153.101 37.4507 154.15 37.4507C156.031 37.4507 157.416 36.583 158.304 34.849C159.191 33.1146 159.635 30.4061 159.635 26.7218V22.81C159.635 20.0408 159.466 17.876 159.13 16.3161Z" fill="white"/>
</svg>
